<svg id="Layer_1" data-name="Layer 1" xmlns="http://www.w3.org/2000/svg" viewBox="0 0 283.46 283.46"><defs><style>.cls-1{fill:#f5f5f5;}</style></defs><title>foodvectorwhiteArtboard 15</title><path class="cls-1" d="M.19,223.87a12.74,12.74,0,0,0,1.9-1.3q61.41-59.73,122.8-119.49c6.61-6.43,13.21-12.87,19.88-19.24a2.54,2.54,0,0,0,.65-3.42,54.15,54.15,0,0,1-5-28.62,55.1,55.1,0,0,1,13.45-31.64c8.88-10.25,20-16.73,33.3-18.9,16.55-2.69,31.69,1,44.75,11.68,14.66,12,22.12,27.67,21,46.55-1.34,23-13.08,39.68-34.1,49.15-15.11,6.81-30.56,6.17-45.72-.49a2.64,2.64,0,0,0-3.54.68q-36.89,38-73.86,76-46.65,48-93.31,95.91a25.3,25.3,0,0,0-2.22,3.14v-7.54l5.11-5.25Q54.46,220.53,103.62,170q30.62-31.47,61.26-62.95c.75-.77,2.23-1.54.89-2.91s-2.36-.34-3.3.68c-.28.31-.59.6-.88.89q-79.53,79.53-159,159a27.08,27.08,0,0,1-2.35,1.9v-6.11L5.73,255,157.9,102.8a13.88,13.88,0,0,1,1-1c1.27-1,1.32-1.91,0-3a40.33,40.33,0,0,1-4.18-4.19c-1.13-1.3-2-1.15-3.08,0-3.72,3.81-7.52,7.56-11.29,11.32q-69,69-138.08,138.06a14.54,14.54,0,0,1-2.11,1.49v-5.75c1.92-2,3.82-4,5.76-5.89Q82,157.71,158.09,81.65c.46-.47,1.11-.87,1.32-1.44s.33-1.67,0-2-1.38-.26-2-.09c-.45.12-.79.69-1.18,1.07l-34.35,33.45L55.39,177.23Q28.81,203.11,2.22,229a14.54,14.54,0,0,1-2,1.39ZM195.36,5.1c-1.67.16-4.62.27-7.49.78a51.64,51.64,0,0,0-43,51.49,50.82,50.82,0,0,0,3.89,19.21c.72,1.75,1.35,1.87,2.74.58.75-.69,1.47-1.4,2.21-2.1,2.82-2.67,6.53-2.8,9-.31,2.6,2.64,2.56,6-.17,8.94-1.48,1.57-3,3.09-4.57,4.57-1,1-1.13,1.79-.11,2.89,12.46,13.53,27.89,19.28,46.05,16.91,28.16-3.68,47.94-30.2,43.93-58.42C244.23,24.09,222.31,5,195.36,5.1Z"/><path class="cls-1" d="M196.58,24.28a32.6,32.6,0,0,1,.29,65.19C179,89.54,164.12,75,164.05,57.38A32.64,32.64,0,0,1,196.58,24.28ZM224.5,56.91a27.9,27.9,0,1,0-28,27.89A27.67,27.67,0,0,0,224.5,56.91Z"/><path class="cls-1" d="M179.81,61.33a37.4,37.4,0,0,0,1.65-3.44,2.52,2.52,0,0,0,0-2c-2.78-4.09-1.14-8.29,3.72-9.07,1.07-.17,1.34-.55,1.46-1.55a5.33,5.33,0,0,1,8.68-3.79c.86.61,1.39,1,2.43.14a5.37,5.37,0,0,1,8.85,3.48c.17,1.1.38,1.56,1.62,1.77,4.67.76,6.35,5.22,3.44,9a1.37,1.37,0,0,0,.06,2c3,3.93,1.13,8.18-3.74,9a1.91,1.91,0,0,0-1.25,1.25c-.8,4.79-5.16,6.74-9.05,3.92-.81-.59-1.33-.76-2.15,0a5.38,5.38,0,0,1-8.91-3.7c0-1.23-.69-1.42-1.72-1.52A5.84,5.84,0,0,1,179.81,61.33Zm28.84.61a8.25,8.25,0,0,0-.48-1.13c-2.35-3.36-2.39-4.25-.12-7.7.85-1.31.08-1.52-1-1.68-3-.48-4.65-2.06-5.05-4.92-.25-1.72-.46-1.82-1.82-.84-2.55,1.84-4.7,1.85-7.2-.07-1-.75-1.51-.89-1.71.62-.44,3.26-1.91,4.72-5.15,5.21-1.4.21-1.61.7-.76,1.87,1.91,2.61,1.9,4.51.1,7-1,1.37-.88,1.61.89,1.94a5.53,5.53,0,0,1,4.92,5.14c.2,1.72.81,1.35,1.81.64a5.48,5.48,0,0,1,7.07,0c1.34,1,1.59.85,1.84-.8a5.47,5.47,0,0,1,4.86-5C207.39,62.18,207.89,62.08,208.65,61.94Z"/></svg>