<svg id="Layer_1" data-name="Layer 1" xmlns="http://www.w3.org/2000/svg" viewBox="0 0 283.46 283.46"><defs><style>.cls-1{fill:#f5f5f5;}</style></defs><title>foodvectorwhiteArtboard 20</title><path class="cls-1" d="M142.32,126.52c-.39,5.91-3.32,10.09-8.67,12.31s-10,1-14.4-2.52a8.73,8.73,0,0,0-4.51-1.5c-7.47-.63-11.3-7.55-7.34-13.49,1.54-2.32,3.9-3.11,6.45-3.79a27.76,27.76,0,0,0,6.8-2.68c4.83-2.82,9.7-3.39,14.63-.63C140,116.88,142.29,121.1,142.32,126.52Zm-14.4,7c3.37-.33,6-2,7.14-4.82a6.83,6.83,0,0,0-1.93-7.69c-2.07-1.84-5.6-2.4-7.88-.85-3.35,2.27-6.82,4-10.94,4.39-.58,0-1.59,1.12-1.51,1.54a3.81,3.81,0,0,0,1.6,1.83c.33.25,1,.11,1.46.1a11.46,11.46,0,0,1,7.5,2.82A36.83,36.83,0,0,0,127.92,133.47Z"/><path class="cls-1" d="M202.87,128.38a12.21,12.21,0,0,1-11.37-8.54A11.78,11.78,0,0,1,196,106.63c4.22-3.07,8.55-6,12.93-8.85A9.31,9.31,0,0,1,220,98.84a9,9,0,0,1,1.6,11.35c-3,4.69-6.14,9.26-9.4,13.76A12,12,0,0,1,202.87,128.38Zm1-6.83c.68-.44,2.37-1,3.27-2.22,3-4,5.8-8.11,8.49-12.3a2.94,2.94,0,0,0-.08-2.83c-.69-.61-2.4-1-3.06-.6-4.51,3-8.93,6.06-13.21,9.33a4.07,4.07,0,0,0-1.15,5.19C199.05,120.21,200.54,121.42,203.84,121.55Z"/><path class="cls-1" d="M154.07,196.92c-3.77.18-7.51.21-10.59-2.52-3.86-3.41-4.92-8.28-2.77-12.61A10.38,10.38,0,0,1,152.22,176a10.64,10.64,0,0,1,8.76,9.81c.23,3.06.06,6.15.06,9.23,0,1.33-.58,2-2,1.92C157.4,196.87,155.73,196.92,154.07,196.92Zm.15-9.26c0-3.3-1.58-5.3-4-5.22a4,4,0,0,0-3.75,3.91c0,2.55,1.74,3.82,5,3.87C153.52,190.25,154.6,189.6,154.22,187.66Z"/></svg>