<svg id="Layer_1" data-name="Layer 1" xmlns="http://www.w3.org/2000/svg" viewBox="0 0 283.46 283.46"><defs><style>.cls-1{fill:#f5f5f5;}</style></defs><title>foodvectorwhiteArtboard 19</title><path class="cls-1" d="M194.47,139.8c.1,6.7.1,6.72-6.7,6.68a34.66,34.66,0,0,1-6-.37,10.6,10.6,0,1,1,12.62-11.54A50.67,50.67,0,0,1,194.47,139.8ZM187.81,137c0-3.19-1.52-5-3.95-5a3.85,3.85,0,0,0-3.85,3.79c0,2.29,2,3.77,4.91,3.88C187.06,139.73,188.1,139,187.81,137Z"/><path class="cls-1" d="M80.56,139.06a18.84,18.84,0,0,1-1.91,3Q71.82,149,64.91,155.79c-1.76,1.73-3.88,1.82-5.27.34s-1.25-3.4.42-5.09c4.61-4.68,9.19-9.39,14-13.86a5.46,5.46,0,0,1,4.21-.84C79.13,136.5,79.75,138,80.56,139.06Z"/></svg>