<svg id="Layer_1" data-name="Layer 1" xmlns="http://www.w3.org/2000/svg" viewBox="0 0 283.46 283.46"><defs><style>.cls-1{fill:#f5f5f5;}</style></defs><title>foodvectorwhiteArtboard 11</title><path class="cls-1" d="M141.74,283.46C63,283.37-.07,220,0,141,.11,63.29,63.72,0,141.77,0a141.74,141.74,0,0,1,0,283.47Zm.15-273.69C69.42,9.6,10,68.41,9.84,140.53c-.2,74,58.11,132.93,131.79,133.17,72.49.23,132-58.8,132.16-131.12A131.88,131.88,0,0,0,141.89,9.77Z"/><path class="cls-1" d="M141.83,14.8A126.86,126.86,0,0,1,268.76,142.15C268.68,212,211.6,268.82,141.69,268.67,71,268.52,14.74,211.85,14.87,140.94,15,71.25,71.88,14.74,141.83,14.8Zm-117.27,127A117.19,117.19,0,1,0,141.74,24.6,116.89,116.89,0,0,0,24.56,141.75Z"/><path class="cls-1" d="M188.34,144.54c11,0,22.11-.4,33.13.09,14.42.65,26.2,13.83,26.33,28.66s-11.67,27.94-26.28,29.2a29.42,29.42,0,0,1-24.5-9Q175,171.4,153,149.33a18.08,18.08,0,0,1-2.26-3.73c1.5-.46,3-1.3,4.49-1.32,11.05-.11,22.1-.06,33.15-.06Zm9.86,9.82v-.43c-6.89,0-13.79-.06-20.68.06-1,0-2.55.61-2.9,1.37s.41,2.22,1.13,2.94c9.86,10,19.68,20,29.75,29.73,5.89,5.7,15.34,6.5,22.55,2.47,7-3.91,11.16-12.38,9.8-19.83-1.64-8.95-7.78-15.48-16.52-16.18C213.66,153.87,205.91,154.36,198.2,154.36Z"/><path class="cls-1" d="M95.6,144.22c11.05,0,22.09,0,33.14.05,1.29,0,2.58.72,3.88,1.1-.64,1.28-1,2.84-2,3.8q-22.57,22.77-45.3,45.4C76.85,203,62.75,205.15,52,199.67c-11-5.59-17.76-17.89-16.18-29.34,1.79-12.9,11.22-23.26,23.46-25.51a49.4,49.4,0,0,1,8.52-.57C77.07,144.18,86.34,144.22,95.6,144.22ZM45.49,173.43c0,7.7,4.77,15.18,11.83,18,7.76,3.07,15.12,2,21.16-3.81,9.84-9.47,19.39-19.24,29-29,.81-.82,1.07-2.18,1.59-3.28-1.12-.48-2.24-1.35-3.36-1.36-13.42-.09-26.85-.28-40.27,0C53.75,154.26,45.48,162.6,45.49,173.43Z"/><path class="cls-1" d="M144.21,96.82c0-10.69-.12-21.38,0-32.07.22-15.5,11.59-27.39,27.36-28.87,14.1-1.33,27.8,9,30.57,23.33,1.78,9.23.06,18-6.6,24.85-15.57,16-31.45,31.7-47.25,47.46-.65.65-2.46,1.25-2.67,1a5.75,5.75,0,0,1-1.38-3.28C144.17,118.43,144.21,107.62,144.21,96.82ZM154,84.76c0,7.12,0,14.25.05,21.38,0,.93.56,2.54,1.1,2.65a3.92,3.92,0,0,0,3.08-.94c10-9.86,20-19.65,29.68-29.78,6.34-6.64,6.84-16.08,2-23.68a19.94,19.94,0,0,0-21.83-8.19c-8.1,2.16-14,10-14,19C154,71.69,154,78.22,154,84.76Z"/><path class="cls-1" d="M144.21,186.83c0-10.69,0-21.38,0-32.07,0-1.28.73-2.55,1.12-3.83,1.28.61,2.86.94,3.81,1.89,14.93,14.8,29.87,29.59,44.61,44.58,16.56,16.85,9.13,43.69-13.55,49.44-18.05,4.58-35.77-9.29-36-28.31C144.1,208,144.21,197.4,144.21,186.83Zm9.8,11.62c0,6.42,0,12.83,0,19.25,0,9.45,5.79,17.42,14.13,19.6a20,20,0,0,0,22.18-8.91c4.67-7.87,3.44-17.21-3.4-24.14q-13.89-14.08-28-27.95c-.91-.9-2.36-1.24-3.56-1.83-.46,1.34-1.28,2.68-1.31,4C153.93,185.15,154,191.8,154,198.45Z"/><path class="cls-1" d="M139.18,187.67c0,10.45.1,20.9,0,31.35-.18,14.26-11.16,26.74-24.72,28.33-15.37,1.8-29-7-32.69-21.33-2.8-10.89-.09-20.51,7.79-28.47q22.41-22.67,45.1-45.08c.82-.82,2.17-1.1,3.27-1.64.43,1.24,1.21,2.47,1.22,3.71C139.22,165.58,139.18,176.63,139.18,187.67Zm-9.63,11.14c0-6.53.09-13.06-.06-19.59,0-1.6-.89-3.17-1.36-4.75-1.36.77-3,1.3-4,2.35-5.79,5.63-11.46,11.38-17.17,17.1-3.85,3.87-7.87,7.59-11.49,11.67-7.92,8.92-6.1,22.76,3.61,28.92,6.42,4.08,13.16,4.8,19.94,1.25s10.37-9.6,10.54-17.35C129.66,211.88,129.54,205.35,129.55,198.81Z"/><path class="cls-1" d="M139.18,95.73c0,11.16,0,22.32-.06,33.48,0,1.14-.75,2.26-1.16,3.39-1.11-.51-2.48-.76-3.29-1.56C119.51,116,104.21,101,89.35,85.67c-16.2-16.75-8.64-43.22,13.72-49,17.68-4.57,35.59,8.74,36,27,.26,10.68,0,21.37,0,32.06ZM129.55,85.5c0-6.65.07-13.3,0-20-.13-9.41-5.78-17.11-14-19.35a19.94,19.94,0,0,0-22.41,9.06c-4.52,7.75-3.28,17,3.42,23.84q14,14.22,28.24,28.2c.88.86,2.38,1.1,3.59,1.63.4-1.16,1.13-2.31,1.15-3.48C129.61,98.8,129.55,92.15,129.55,85.5Z"/><path class="cls-1" d="M188,139.21c-11.05,0-22.1,0-33.15-.06-1.38,0-2.75-.85-4.12-1.31a16.32,16.32,0,0,1,2-3.48Q175.35,111.6,198.07,89c8.53-8.5,22.57-10.64,33.34-5.21a29.43,29.43,0,0,1,16,30.71c-1.72,11.84-11.69,22.21-23.51,24.23a50.58,50.58,0,0,1-8.17.5C206.49,139.25,197.23,139.21,188,139.21Zm9.88-9.67c6.65,0,13.31.14,20,0,10.21-.27,17.62-6.12,19.76-15.3A19.66,19.66,0,0,0,228.05,93c-8.05-4.5-17.26-2.92-24.36,4.17-9.17,9.15-18.35,18.29-27.44,27.51-.88.9-1.2,2.34-1.79,3.52,1.26.46,2.51,1.28,3.77,1.31C184.77,129.61,191.3,129.54,197.84,129.54Z"/><path class="cls-1" d="M95.53,138.93c-11.16,0-22.33.37-33.47-.09-14.29-.59-26.28-14-26.39-28.62S47.33,82.33,61.57,81c10-.93,18.31,2.27,25.36,9.41C101.37,105,116,119.49,130.45,134.07a18,18,0,0,1,2.26,3.75c-1.47.46-2.93,1.31-4.4,1.33-10.93.11-21.85.06-32.78.06Zm-10.07-9.8v.41c6.77,0,13.54.07,20.31-.07,1.11,0,2.21-.92,3.32-1.42-.47-1-.69-2.27-1.43-3-9.77-9.88-19.52-19.79-29.48-29.48-6-5.82-15.52-6.67-22.84-2.53a20,20,0,0,0-9.63,20.28c1.53,8.37,8.07,15,16.62,15.7C70,129.59,77.74,129.13,85.46,129.13Z"/></svg>