<svg id="Layer_1" data-name="Layer 1" xmlns="http://www.w3.org/2000/svg" viewBox="0 0 283.46 283.46"><defs><style>.cls-1{fill:#f5f5f5;}</style></defs><title>foodvectorwhiteArtboard 16</title><path class="cls-1" d="M156.32,283.87c-24.22-.26-43.73-7.35-60.5-21.78-2.72-2.34-2.74-2.36-5.25.12q-6.36,6.29-12.69,12.61c-11.81,11.81-29.69,11.73-41.42-.17-5.82-5.9-11.64-11.79-17.53-17.62-1.47-1.44-1.63-2.43-.05-4,6.39-6.21,12.47-12.74,19-18.77,7-6.47,15.47-8.71,24.89-7.05,2.42.42,2.88,0,2.48-2.45-1.62-9.73.89-18.25,7.77-25.33,6-6.21,12.31-12.22,18.39-18.39,1.5-1.52,2.56-1.43,4,0,6.15,6.32,12.44,12.52,18.57,18.87,10.66,11.06,10.35,28.38-.69,39.72-4.43,4.55-9,8.95-13.5,13.43-2,2-2,2.34.28,4.09,28.74,22.11,70.73,7,77.07-29.33,2.93-16.76-2.27-31.07-14.12-43.09q-8.16-8.26-16.4-16.45c-10.17-10-16.67-22-18.53-36.19-.84-6.47-.52-13.12-.4-19.68.19-10.45.79-20.89.93-31.33.11-7.64-3.12-14-8.31-19.52-18-19.15-10.61-50.32,14.21-58.92,14-4.85,27-2.13,37.65,8.37,17.74,17.52,35.13,35.39,52.73,53.05,5.87,5.88,13,7.52,20.87,5S258,60.8,259.25,52.75c.31-2.06,1.06-2.46,2.77-2.29a11.55,11.55,0,0,0,1.86,0c1.46-.11,1.89.62,1.81,2-.71,12.76-12.54,23.88-25.33,24.05-8.33.11-15-2.94-20.85-8.84q-25.72-26.16-51.74-52.06c-8.4-8.35-18.69-10.7-29.89-7.33S119.8,19.5,117.29,30.89c-1.78,8.06-.06,15.63,4.41,22.58.73,1.12,1.52,1.86,2.79,1s1.09-1.76.32-3c-5.24-8.23-5.88-16.86-2-25.82,4.35-10.1,16.47-16.57,27.36-14.89a28.28,28.28,0,0,1,16.28,8.47q25.71,26,51.52,52a30,30,0,0,0,41,1.8c1.23-1,2.13-1,3.15.12.52.58,1.07,1.12,1.63,1.66,1,.91.8,1.74-.14,2.54a36.17,36.17,0,0,1-20.67,8.92c-12.57,1.12-22.65-3.53-31.33-12.4-16.83-17.22-33.88-34.23-50.84-51.32-7.14-7.19-19.87-7.59-27.18-.86-8.31,7.65-9.3,19.93-2.13,28.08,3,3.36,6.18,6.51,9.34,9.7Q178.39,97.35,216,135.25a84,84,0,0,1,24.51,50.49c3.07,26.39-4.15,49.81-22,69.72-13.28,14.8-29.9,23.61-49.35,27.12C164.24,283.46,159.18,283.6,156.32,283.87ZM134.82,103h-1.09c0,6.26.06,12.53,0,18.8-.16,12.74,2.93,24.61,11,34.53,6,7.42,13.05,14,19.63,21,1.45,1.53,2.42.39,3.44-.62l38.28-37.91c2.32-2.3,2.33-2.33-.06-4.74q-36.87-37.2-73.75-74.38c-.91-.92-1.72-2.15-3.27-.93s-.93,2.25,0,3.53A30.94,30.94,0,0,1,134.81,80C134.84,87.7,134.82,95.36,134.82,103Zm71.06,90.42v.13c8.75,0,17.5,0,26.25,0,2,0,2.93-.57,2.61-2.66-.64-4.19-1-8.43-1.91-12.56A78.45,78.45,0,0,0,215,143.31c-1.11-1.29-2.09-2.48-3.9-.68q-19.62,19.62-39.35,39.15c-1.15,1.14-1,2-.08,3.16a50.66,50.66,0,0,1,4.56,6.4,3.82,3.82,0,0,0,3.92,2.12C188.69,193.41,197.29,193.44,205.88,193.44ZM208,200v-.33q-12.19,0-24.38,0c-2.48,0-2.92.6-2.18,2.93A53.3,53.3,0,0,1,184.1,222a4.53,4.53,0,0,0,1.07,3.1c8.57,8.72,17.24,17.35,25.85,26,1.23,1.24,2.25,1.13,3.25-.17,2.5-3.24,5.16-6.37,7.43-9.77a79.24,79.24,0,0,0,13.05-38.54c.16-2-.5-2.71-2.58-2.68C224.13,200,216.08,200,208,200ZM115.4,220.7c0-6.67-1.56-11.55-5.25-15.49-5-5.3-10.15-10.4-15.22-15.61-1-1-1.93-1.11-3-.07-5.08,5.09-10.35,10-15.22,15.28a21.82,21.82,0,0,0,.52,30c4.63,4.77,9.42,9.39,14,14.19,1.44,1.51,2.42,1.36,3.79,0,4.6-4.69,9.31-9.28,14-13.94A20.76,20.76,0,0,0,115.4,220.7ZM57,277.29a22.07,22.07,0,0,0,15.93-6.36c4.73-4.45,9.2-9.17,13.86-13.69,1.43-1.39,1.49-2.4,0-3.82-4.85-4.77-9.55-9.7-14.4-14.47-7.92-7.78-22.21-7.87-30.1-.19-4.93,4.8-9.73,9.73-14.67,14.53-1.4,1.36-1.33,2.26,0,3.6,4.6,4.48,9.1,9.05,13.6,13.63A21.77,21.77,0,0,0,57,277.29Zm98.23-5.55v2.89c0,2.83.21,3.1,3.1,2.74,4.89-.6,9.84-1,14.64-2.08a76.63,76.63,0,0,0,33.2-16.56c1.37-1.14,1.52-2.05.18-3.39-6.94-7-13.82-14-20.73-21-2-2.05-2.78-1.81-3.67,1-4,12.87-11.55,23.17-23.13,30.2C156,267.25,154.36,269,155.23,271.74ZM148.84,274c-.29-1.08.82-3.37-2.08-2.75-2.7.58-5.41,1.17-8.08,1.9a7.69,7.69,0,0,0-2.06,1.44c.74.54,1.42,1.38,2.25,1.57,2.17.48,4.41.71,6.63,1C148.53,277.54,148.83,277.26,148.84,274Z"/><path class="cls-1" d="M180.78,128.81a19.49,19.49,0,1,1-39,.15,19.49,19.49,0,0,1,39-.15Zm-6.31.21a13.18,13.18,0,1,0-13.36,13A13.07,13.07,0,0,0,174.47,129Z"/><path class="cls-1" d="M161.35,138.7a9.74,9.74,0,0,1-10-9.7,9.91,9.91,0,1,1,19.81-.13A9.72,9.72,0,0,1,161.35,138.7Zm3.62-9.8a4,4,0,0,0-3.78-3.65,4.06,4.06,0,0,0-3.6,3.61,3.69,3.69,0,0,0,3.79,3.52A3.63,3.63,0,0,0,165,128.9Z"/></svg>