<svg id="Layer_1" data-name="Layer 1" xmlns="http://www.w3.org/2000/svg" viewBox="0 0 283.46 283.46"><defs><style>.cls-1{fill:#f5f5f5;}</style></defs><title>foodvectorwhiteArtboard 14</title><path class="cls-1" d="M141.2,244.55c-6.43,0-12.87,0-19.3,0-4.39,0-7.63-1.69-9.47-5.83a2.32,2.32,0,0,0-1.65-.86c-5.64-.65-11.35-.89-16.91-1.89a112.47,112.47,0,0,1-62.55-33.44,113.71,113.71,0,0,1-30-57.64A95.36,95.36,0,0,1,.18,115c.16-1.36.74-1.66,2-1.65,9,0,17.91,0,26.86.05a2.77,2.77,0,0,0,3.17-2.31c2.27-7.42,4.57-14.82,7-22.17a46.56,46.56,0,0,1,9.61-17.11c5.16-5.59,11.67-9,18.73-11.45,5.2-1.81,10.48-3.4,15.77-4.94,9.27-2.71,17.77-7,26.21-11.65a123.49,123.49,0,0,1,17.52-7.89c9.74-3.47,19.48-2.37,28.8,1.8,5.51,2.48,10.91,5.24,16.16,8.23,9.53,5.43,19.81,8.81,30.27,11.84a122.34,122.34,0,0,1,13,4.66c10.92,4.55,18.22,12.65,22.16,23.69,2.78,7.8,5.11,15.76,7.73,23.63,1.39,4.16.55,3.53,4.94,3.54,9.82,0,19.63,0,29.44,0,2.67,0,2.65,0,2.92,2.61a100.73,100.73,0,0,1-5.78,45.35c-10.59,29-29.59,50.61-57.12,64.6a113,113,0,0,1-42.29,11.72c-1.93.16-3.86.16-5.78.36a2.09,2.09,0,0,0-1.45.93c-1.81,4-4.93,5.74-9.2,5.74Q151,244.53,141.2,244.55Zm.07-126.94v0H8.89c-1,0-2,0-3.05,0s-1.59.51-1.68,1.65a91.15,91.15,0,0,0,2.08,27.46C11.57,170,22.89,189.7,40.75,205.49c20,17.74,43.56,27.22,70.34,27.8,19.3.41,38.61.11,57.91.12a99.16,99.16,0,0,0,25.45-3.1c35.73-9.41,61.13-31,75.84-64.93a95.75,95.75,0,0,0,8-45.75c-.15-2-.18-2-2.4-2Zm-2.64-4.28v-.07h99.59a15.34,15.34,0,0,0,1.92,0c.83-.09,1.25-.47.93-1.42-2.81-8.53-5.35-17.17-8.47-25.59a32.56,32.56,0,0,0-18.44-19.36,128.81,128.81,0,0,0-14.64-5.24c-10.59-3-20.85-6.74-30.47-12.23a164.61,164.61,0,0,0-15.48-7.78c-8-3.51-16.4-4.57-24.74-1.56a128.11,128.11,0,0,0-17.26,7.71c-8,4.3-15.94,8.54-24.65,11.23-6.49,2-13,3.93-19.41,6.19-8.09,2.86-15,7.45-19.41,15-5.8,9.88-7.84,21.12-11.42,31.8-.1.29.51,1,1,1.25a3.75,3.75,0,0,0,1.58.06Zm2.58,124.57c-7.07,0-14.14,0-21.21,0-.55,0-1.09.5-1.64.77a6,6,0,0,0,1.53,1.13,7.08,7.08,0,0,0,2.22.22h38.23a6.51,6.51,0,0,0,2.22-.22,6.29,6.29,0,0,0,1.6-1.23,5.57,5.57,0,0,0-1.75-.67C155.34,237.88,148.28,237.9,141.21,237.9Z"/><path class="cls-1" d="M114.24,126.93a6.92,6.92,0,0,1-4.12,6.1,6.4,6.4,0,0,1-7.18-1.05,42.67,42.67,0,0,1-4.3-4.31,1.74,1.74,0,0,1,0-1.7,42.77,42.77,0,0,1,4.3-4.32,6.55,6.55,0,0,1,7.35-1A6.79,6.79,0,0,1,114.24,126.93Zm-4.5,0a2.34,2.34,0,0,0-2.22-2.47c-1.08,0-3.16,1.43-3.23,2.31s2,2.43,3.07,2.44A2.29,2.29,0,0,0,109.74,126.91Z"/><path class="cls-1" d="M242.92,156.53a7.54,7.54,0,0,1-6.49-5.05,6.72,6.72,0,0,1,2.2-7.35,6.41,6.41,0,0,1,7.75-.49,50.15,50.15,0,0,1,5.48,5.14,1.38,1.38,0,0,1-.07,1.36,47.46,47.46,0,0,1-5,4.75A16.3,16.3,0,0,1,242.92,156.53Zm0-4.73c1,0,3-1.53,3-2.32s-2-2.48-3.06-2.46a2.39,2.39,0,1,0,0,4.78Z"/><path class="cls-1" d="M227.21,149.5a6.83,6.83,0,0,1-4,6.05,6.44,6.44,0,0,1-7.33-1,41.56,41.56,0,0,1-4.3-4.3,1.74,1.74,0,0,1,0-1.71,39.47,39.47,0,0,1,4.18-4.2,6.61,6.61,0,0,1,7.48-1.07A6.77,6.77,0,0,1,227.21,149.5Zm-6.86,2.29a2.32,2.32,0,0,0,2.37-2.48A2.36,2.36,0,0,0,220.3,147c-1,0-3,1.54-3,2.34S219.24,151.8,220.35,151.79Z"/><path class="cls-1" d="M242.71,119.77a7.39,7.39,0,0,1,6.82,5.25,6.89,6.89,0,0,1-3.23,7.71,6.67,6.67,0,0,1-8.12-1c-1.35-1.29-2.7-2.6-4-4a1.64,1.64,0,0,1-.2-1.55,43.89,43.89,0,0,1,4.94-4.8A15.47,15.47,0,0,1,242.71,119.77Zm2.66,7.06a2.5,2.5,0,0,0-2.35-2.4c-1.15,0-3.08,1.48-3.09,2.4s1.83,2.38,3.08,2.36A2.41,2.41,0,0,0,245.37,126.83Z"/><path class="cls-1" d="M152.4,119.7a7.55,7.55,0,0,1,6.73,5.26,6.92,6.92,0,0,1-2.87,7.57,6.74,6.74,0,0,1-8.3-.66c-1.41-1.31-2.72-2.73-4.1-4.07-.57-.56-.85-1.11-.18-1.77a56.27,56.27,0,0,1,4.74-4.54A18,18,0,0,1,152.4,119.7Zm.16,9.49a2.43,2.43,0,0,0,2.44-2.28,2.5,2.5,0,0,0-2.43-2.48c-1.06,0-2.95,1.47-3,2.31S151.29,129.17,152.56,129.19Z"/><path class="cls-1" d="M238.56,138.06a7.3,7.3,0,0,1-4.47,6.43,6.78,6.78,0,0,1-7.47-1.79c-2-2.29-2.55-5.31-.9-7.71a48.85,48.85,0,0,1,5.26-5.81,1.28,1.28,0,0,1,1.24,0c1.89,2,3.78,4.05,5.5,6.22A8.06,8.06,0,0,1,238.56,138.06Zm-4.53,0c0-1.07-1.54-2.91-2.39-2.92s-2.45,1.92-2.41,3.06a2.4,2.4,0,0,0,4.8-.14Z"/><path class="cls-1" d="M148.27,138.12a7.47,7.47,0,0,1-4.49,6.34,6.87,6.87,0,0,1-7.52-1.7c-1.92-2.09-2.62-5.12-1.09-7.41a49,49,0,0,1,5.51-6.22,1.25,1.25,0,0,1,1.24.06,65,65,0,0,1,5.11,5.53C147.74,135.63,147.88,137,148.27,138.12Zm-7.06,2.36c1.31,0,2.84-1.25,2.44-2.36a6.76,6.76,0,0,0-2.39-2.92c-.62-.44-2.45,1.83-2.44,3A2.42,2.42,0,0,0,141.21,140.48Z"/><path class="cls-1" d="M265.71,119.69a20.48,20.48,0,0,1,4.1,1.9,34.74,34.74,0,0,1,4.44,4.39,1.64,1.64,0,0,1,.09,1.6,43.71,43.71,0,0,1-5,4.76,6.45,6.45,0,0,1-8.16-.21,6.91,6.91,0,0,1-2.22-7.36A7.61,7.61,0,0,1,265.71,119.69Zm-.23,9.5c1.12,0,3.1-1.52,3.09-2.37s-2-2.44-3.08-2.42a2.39,2.39,0,0,0-2.36,2.49A2.3,2.3,0,0,0,265.48,129.19Z"/><path class="cls-1" d="M197.54,119.77a7.36,7.36,0,0,1,6.83,5.43,6.73,6.73,0,0,1-2.84,7.26,6.65,6.65,0,0,1-8.3-.52,51.89,51.89,0,0,1-4.19-4.2,1.73,1.73,0,0,1-.18-1.6,43.89,43.89,0,0,1,4.93-4.81C194.81,120.52,196.28,120.27,197.54,119.77Zm.23,4.64c-1.05,0-3.09,1.55-3.1,2.41s1.91,2.32,2.94,2.37a2.31,2.31,0,0,0,2.51-2.29A2.37,2.37,0,0,0,197.77,124.41Z"/><path class="cls-1" d="M118.61,131.32a6.59,6.59,0,0,1,6.16,3.83,6.17,6.17,0,0,1-.69,6.95,48.66,48.66,0,0,1-4.69,4.84,1.52,1.52,0,0,1-1.46,0,48.72,48.72,0,0,1-4.78-5,6.17,6.17,0,0,1-.53-7A6.49,6.49,0,0,1,118.61,131.32Zm-2.36,6.85c0,1.09,1.51,2.9,2.39,2.92s2.45-1.84,2.43-3a2.42,2.42,0,0,0-2.54-2.34A2.46,2.46,0,0,0,116.25,138.17Z"/><path class="cls-1" d="M220.57,119.68a22.74,22.74,0,0,1,4.21,2,49.89,49.89,0,0,1,4.36,4.25c.64.63.57,1.15-.06,1.76-1.38,1.34-2.7,2.74-4.1,4.07a6.7,6.7,0,0,1-8.28.79,6.89,6.89,0,0,1-3-7.53A7.62,7.62,0,0,1,220.57,119.68Zm-.33,9.51c1.25,0,3.1-1.39,3.09-2.37s-1.86-2.38-2.93-2.42a2.54,2.54,0,0,0-2.52,2.42A2.41,2.41,0,0,0,220.24,129.19Z"/><path class="cls-1" d="M62.16,156.55a7.49,7.49,0,0,1-6.57-5.4,6.8,6.8,0,0,1,11-6.91,50,50,0,0,1,4.31,4.3,1.69,1.69,0,0,1,.11,1.61,39.41,39.41,0,0,1-4.83,4.67A17.49,17.49,0,0,1,62.16,156.55Zm0-4.75c1.07,0,3.09-1.54,3.08-2.4s-1.93-2.35-2.94-2.39a2.35,2.35,0,0,0-2.5,2.33A2.32,2.32,0,0,0,62.14,151.8Z"/><path class="cls-1" d="M265.43,142.35A7.38,7.38,0,0,1,272,147.4a6.88,6.88,0,0,1-2.65,7.63,6.73,6.73,0,0,1-8.19-.37,56,56,0,0,1-4.43-4.42,1.53,1.53,0,0,1-.16-1.46,50,50,0,0,1,5.19-5C262.78,143,264.21,142.81,265.43,142.35Zm2.52,7.09A2.48,2.48,0,0,0,265.5,147c-1.17,0-3,1.52-3,2.45s1.81,2.29,2.95,2.32A2.4,2.4,0,0,0,268,149.44Z"/><path class="cls-1" d="M209.22,131.32a6.52,6.52,0,0,1,6,4,6.41,6.41,0,0,1-1.13,7.32,45.1,45.1,0,0,1-4.2,4.21,1.63,1.63,0,0,1-1.58.1,49.92,49.92,0,0,1-4.79-5,6.1,6.1,0,0,1-.44-7.1A6.49,6.49,0,0,1,209.22,131.32Zm2.18,6.81a2.35,2.35,0,0,0-2.44-2.42,2.54,2.54,0,0,0-2.37,2.39c0,1.12,1.58,3,2.51,3S211.4,139.29,211.4,138.13Z"/><path class="cls-1" d="M254.14,131.32a6.56,6.56,0,0,1,6.23,3.9,6.25,6.25,0,0,1-.74,6.95c-1.38,1.7-3,3.18-4.56,4.75-.61.63-1.18.53-1.78-.08-1.34-1.39-2.78-2.68-4-4.14a6.78,6.78,0,0,1,4.89-11.38Zm0,4.4a2.21,2.21,0,0,0-2.27,2.36c0,1.32,1.45,3.1,2.4,3s2.43-2.06,2.36-3.12A2.54,2.54,0,0,0,254.18,135.72Z"/><path class="cls-1" d="M84.56,156.59a21.87,21.87,0,0,1-4.21-2A31.12,31.12,0,0,1,76,150.27a1.76,1.76,0,0,1,0-1.72,45.92,45.92,0,0,1,4.17-4.2,7,7,0,0,1,8.48-.52,6.86,6.86,0,0,1,2.63,7.5A7.76,7.76,0,0,1,84.56,156.59Zm.17-4.79a2.34,2.34,0,0,0,2.43-2.39,2.38,2.38,0,0,0-2.44-2.4c-1,0-2.93,1.53-3,2.33S83.61,151.79,84.73,151.8Z"/><path class="cls-1" d="M163.9,131.32a6.42,6.42,0,0,1,5.92,3.63,6.18,6.18,0,0,1-.45,7,46.69,46.69,0,0,1-4.74,5,1.53,1.53,0,0,1-1.48.06,57.38,57.38,0,0,1-4.88-5.11,5.92,5.92,0,0,1-.44-6.93A6.51,6.51,0,0,1,163.9,131.32ZM161.47,138c0,1.22,1.4,3.08,2.37,3.07s2.39-1.82,2.43-2.91a2.49,2.49,0,0,0-2.42-2.48A2.36,2.36,0,0,0,161.47,138Z"/><path class="cls-1" d="M17.16,119.89a7.07,7.07,0,0,1,6.32,4.82,6.89,6.89,0,0,1-2.55,7.68A6.5,6.5,0,0,1,13,132.3a54.56,54.56,0,0,1-4.93-4.81A1.26,1.26,0,0,1,8,126.27a77.62,77.62,0,0,1,6-5.44C14.81,120.2,16.1,120.19,17.16,119.89Zm2.24,6.94a2.44,2.44,0,0,0-2.46-2.42c-1.09,0-3.05,1.63-3,2.49s2,2.27,3,2.29A2.32,2.32,0,0,0,19.4,126.83Z"/><path class="cls-1" d="M175.56,119.76a23.18,23.18,0,0,1,4.09,2,48.86,48.86,0,0,1,4.13,4,1.21,1.21,0,0,1,0,2c-1.34,1.31-2.58,2.72-4,3.94a6.57,6.57,0,0,1-7.43,1.26,6.78,6.78,0,0,1-.17-12.34A22.84,22.84,0,0,1,175.56,119.76Zm-.51,9.43c1.12,0,3.08-1.44,3.12-2.33s-1.79-2.38-2.86-2.45a2.4,2.4,0,0,0-2.57,2.28A2.33,2.33,0,0,0,175.05,129.19Z"/><path class="cls-1" d="M197.73,156.57a7.72,7.72,0,0,1-6.57-5.27,6.84,6.84,0,0,1,2.82-7.56,6.69,6.69,0,0,1,8.17.52,56.54,56.54,0,0,1,4.31,4.31,1.63,1.63,0,0,1,.09,1.58,36.87,36.87,0,0,1-4.68,4.59A18.86,18.86,0,0,1,197.73,156.57Zm0-9.56a2.48,2.48,0,0,0-2.39,2.49,2.44,2.44,0,0,0,2.56,2.29c1.13,0,2.88-1.5,2.88-2.38S198.83,147,197.69,147Z"/><path class="cls-1" d="M32.7,126.92c.22-2.88,1.41-5.06,4-6.24a6.57,6.57,0,0,1,7.35,1c1.54,1.31,2.89,2.86,4.34,4.28a1.08,1.08,0,0,1,0,1.78c-1.45,1.42-2.8,3-4.35,4.27a6.39,6.39,0,0,1-7.32,1A6.85,6.85,0,0,1,32.7,126.92Zm6.7,2.26c1.14.06,3.59-1.73,3.17-2.32a6.72,6.72,0,0,0-2.91-2.38c-1.18-.44-2.43.92-2.47,2.27A2.29,2.29,0,0,0,39.4,129.18Z"/><path class="cls-1" d="M136.81,149.5a6.74,6.74,0,0,1-4,6.09,6.38,6.38,0,0,1-7.19-1,48.52,48.52,0,0,1-4.43-4.41,1.6,1.6,0,0,1,0-1.56,48.51,48.51,0,0,1,4.57-4.5,6.34,6.34,0,0,1,7.21-.82A6.73,6.73,0,0,1,136.81,149.5Zm-6.88,2.3A2.39,2.39,0,1,0,130,147c-1.15,0-3.08,1.51-3,2.44S128.87,151.8,129.93,151.8Z"/><path class="cls-1" d="M175.15,156.57a18.45,18.45,0,0,1-4.14-1.83,37,37,0,0,1-4.69-4.59,1.62,1.62,0,0,1,.11-1.59,48.58,48.58,0,0,1,4.3-4.31,6.69,6.69,0,0,1,8.18-.5,6.78,6.78,0,0,1,2.84,7.4A7.64,7.64,0,0,1,175.15,156.57Zm0-4.77a2.38,2.38,0,0,0,2.35-2.49,2.41,2.41,0,0,0-2.39-2.3c-1.13,0-3,1.53-3,2.42S174.05,151.82,175.2,151.8Z"/><path class="cls-1" d="M17.24,142.27a20.13,20.13,0,0,1,3.94,1.88,39.51,39.51,0,0,1,4.59,4.47,1.58,1.58,0,0,1,0,1.55,49.77,49.77,0,0,1-4.54,4.53,6.78,6.78,0,0,1-10.81-7.08A7.5,7.5,0,0,1,17.24,142.27ZM17,151.78c1.11,0,2.94-1.44,3-2.32s-1.88-2.47-3-2.44a2.46,2.46,0,0,0-2.39,2.35A2.41,2.41,0,0,0,17,151.78Z"/><path class="cls-1" d="M130.07,119.69a20.82,20.82,0,0,1,4.25,2,32.3,32.3,0,0,1,4.44,4.39,1.6,1.6,0,0,1,0,1.57A54.34,54.34,0,0,1,134.3,132a6.62,6.62,0,0,1-8.17.44,6.89,6.89,0,0,1-2.76-7.46A7.56,7.56,0,0,1,130.07,119.69Zm-.1,9.5c1.16,0,3.08-1.57,3-2.43s-2.12-2.41-3.14-2.36a2.49,2.49,0,0,0-2.32,2.4A2.35,2.35,0,0,0,130,129.19Z"/><path class="cls-1" d="M100.54,149.49a6.61,6.61,0,0,1,4-6.26,6.46,6.46,0,0,1,7.32,1.1c1.49,1.3,2.81,2.79,4.24,4.16.7.68.64,1.22,0,1.87-1.43,1.37-2.74,2.87-4.23,4.17a6.44,6.44,0,0,1-7.32,1.05A6.59,6.59,0,0,1,100.54,149.49Zm6.82,2.3c1.12,0,2.94-1.4,3-2.3s-1.83-2.48-3-2.47a2.51,2.51,0,0,0-2.43,2.32A2.47,2.47,0,0,0,107.36,151.79Z"/><path class="cls-1" d="M73.48,131.32a6.6,6.6,0,0,1,5.93,3.5,6,6,0,0,1-.16,6.7A49.29,49.29,0,0,1,74.13,147a1.38,1.38,0,0,1-1.36,0,50.93,50.93,0,0,1-4.94-5.25,6,6,0,0,1-.35-6.82A6.57,6.57,0,0,1,73.48,131.32Zm2.39,6.78a2.45,2.45,0,0,0-2.34-2.39,2.4,2.4,0,0,0-2.46,2.41c0,1.21,1.54,3,2.49,3S75.88,139.18,75.87,138.1Z"/><path class="cls-1" d="M186.43,145a6.8,6.8,0,0,1-5.93-3.57,6.06,6.06,0,0,1,.25-6.83,47.46,47.46,0,0,1,5.05-5.38,1.54,1.54,0,0,1,1.45.17,47.49,47.49,0,0,1,4.3,4.33,6.39,6.39,0,0,1,1.09,7.2A6.79,6.79,0,0,1,186.43,145Zm2.4-6.78c0-1.15-1.47-3.09-2.39-3.09S184.07,137,184,138a2.34,2.34,0,0,0,2.25,2.43A2.31,2.31,0,0,0,188.83,138.2Z"/><path class="cls-1" d="M57.83,138.23a7.32,7.32,0,0,1-4.37,6.2A6.78,6.78,0,0,1,46.17,143c-2-2.06-3-5-1.5-7.33s3.74-4.47,5.71-6.64a1.18,1.18,0,0,1,1.12.07A76.08,76.08,0,0,1,56.77,135C57.43,135.8,57.49,137.12,57.83,138.23Zm-6.92,2.24a2.42,2.42,0,0,0,2.41-2.3c0-1.11-1.57-3.06-2.47-3s-2.39,2-2.34,3.11A2.24,2.24,0,0,0,50.91,140.47Z"/><path class="cls-1" d="M84.9,119.7A19,19,0,0,1,89,121.58a49.85,49.85,0,0,1,4.5,4.35c.7.69.55,1.29-.1,1.92-1.35,1.31-2.62,2.69-4,4a6.74,6.74,0,0,1-8.31.75A6.86,6.86,0,0,1,78.18,125,7.58,7.58,0,0,1,84.9,119.7Zm-.1,9.49c1.22,0,3-1.55,3-2.46s-2.06-2.39-3.14-2.33a2.47,2.47,0,0,0-2.29,2.42A2.37,2.37,0,0,0,84.8,129.19Z"/><path class="cls-1" d="M88.94,138a22.14,22.14,0,0,1,2-4.22,36.15,36.15,0,0,1,4.36-4.48,1.49,1.49,0,0,1,1.46,0,44.52,44.52,0,0,1,4.68,4.84,6.18,6.18,0,0,1,.57,7.23,6.75,6.75,0,0,1-12.29-.82,15,15,0,0,1-.53-2.32Zm9.5.1c0-1.1-1.44-2.92-2.33-3s-2.5,1.9-2.49,3a2.42,2.42,0,0,0,2.54,2.32A2.25,2.25,0,0,0,98.44,138.09Z"/><path class="cls-1" d="M152.68,156.54a7.51,7.51,0,0,1-6.73-5.42,6.83,6.83,0,0,1,11.19-6.77,50.66,50.66,0,0,1,4.05,4.11,1.77,1.77,0,0,1,.17,1.72,35.6,35.6,0,0,1-4.68,4.59A17.86,17.86,0,0,1,152.68,156.54Zm-.06-4.6c1.22,0,3.14-1.69,3.06-2.63s-2.11-2.47-3.27-2.4a2.52,2.52,0,0,0,.21,5Z"/><path class="cls-1" d="M35.38,138.15a18.12,18.12,0,0,1-1.76,4,39.24,39.24,0,0,1-4.56,4.74,1.62,1.62,0,0,1-1.58,0A55.57,55.57,0,0,1,23,142.32a6.68,6.68,0,0,1-.38-7.94,6.84,6.84,0,0,1,7.76-2.75A7.54,7.54,0,0,1,35.38,138.15Zm-9.48,0c0,1.12,1.42,2.91,2.33,3s2.48-1.85,2.47-3a2.45,2.45,0,0,0-2.52-2.37A2.37,2.37,0,0,0,25.9,138.14Z"/><path class="cls-1" d="M62.05,119.81a7.35,7.35,0,0,1,6.7,5.11,6.94,6.94,0,0,1-2.82,7.58,6.7,6.7,0,0,1-8.3-.61,55.21,55.21,0,0,1-4.19-4.19c-.29-.32-.43-1.25-.21-1.48a60.35,60.35,0,0,1,5.45-5.16C59.57,120.35,60.92,120.21,62.05,119.81Zm2.55,7.07a2.41,2.41,0,0,0-2.29-2.44c-1.12,0-3.12,1.42-3.15,2.33s1.83,2.42,3.05,2.42A2.39,2.39,0,0,0,64.6,126.88Z"/><path class="cls-1" d="M46.41,149.68a6.6,6.6,0,0,1-4,5.91,6.4,6.4,0,0,1-7.19-1,48.41,48.41,0,0,1-4.41-4.42,1.58,1.58,0,0,1,0-1.55,44.87,44.87,0,0,1,4.43-4.4,6.48,6.48,0,0,1,7.49-.83A6.59,6.59,0,0,1,46.41,149.68ZM42,149.46A2.49,2.49,0,0,0,39.56,147c-1.09,0-2.93,1.45-3,2.34s1.71,2.37,2.87,2.43A2.47,2.47,0,0,0,42,149.46Z"/><path class="cls-1" d="M180.56,105.06A7.65,7.65,0,0,1,173,96.28c.52-3.33,1.14-6.64,1.81-9.93a6,6,0,0,1,6-4.81,6,6,0,0,1,5.79,5q.83,4.57,1.68,9.14A7.71,7.71,0,0,1,180.56,105.06Zm.17-4.52a3.12,3.12,0,0,0,3.21-3.43c-.5-3.27-1.15-6.52-1.86-9.75-.11-.51-1-1.25-1.36-1.2a2.15,2.15,0,0,0-1.48,1.3c-.69,3.12-1.28,6.28-1.78,9.44A3.14,3.14,0,0,0,180.73,100.54Z"/><path class="cls-1" d="M130.5,82.84c4.69.15,7.66,5,5.28,9a89.26,89.26,0,0,1-6.16,9,7.21,7.21,0,0,1-7.93,2.55,7.46,7.46,0,0,1-5.64-6A7,7,0,0,1,118.69,90c2.88-2.22,5.92-4.22,9-6.2A11.86,11.86,0,0,1,130.5,82.84Zm0,4.72a1.25,1.25,0,0,0-.53.12c-2.94,2-6,4-8.75,6.2-1.39,1.11-1.07,3.2.27,4.42a3.15,3.15,0,0,0,4.48-.12c2.09-2.76,4-5.65,5.92-8.56C132.52,88.61,131.74,87.53,130.47,87.56Z"/><path class="cls-1" d="M73.19,76.19a7.77,7.77,0,0,1,7.63,9.31q-.85,4.57-1.69,9.14a6,6,0,0,1-11.82.2c-.65-3.25-1.26-6.5-1.77-9.77A7.74,7.74,0,0,1,73.19,76.19Zm-3.27,8c.59,3.16,1.17,6.53,1.89,9.86a1.76,1.76,0,0,0,1.35,1.06A2,2,0,0,0,74.59,94c.72-3.28,1.39-6.58,1.87-9.91a3.14,3.14,0,0,0-3.29-3.37A3.35,3.35,0,0,0,69.92,84.21Z"/><path class="cls-1" d="M173.41,68.25a8.21,8.21,0,0,1-5.33,8.09,7.76,7.76,0,0,1-8.63-2.67q-3-4.11-5.72-8.35a5.81,5.81,0,0,1,.85-7.63,5.94,5.94,0,0,1,7.4-.63c2.82,1.85,5.6,3.78,8.34,5.74A7.18,7.18,0,0,1,173.41,68.25Zm-4.49.13a6,6,0,0,0-1.29-1.94c-2.6-2-5.3-3.78-8-5.54a2,2,0,0,0-1.83.16,1.88,1.88,0,0,0-.21,1.81c1.78,2.78,3.64,5.53,5.6,8.19a3,3,0,0,0,3.62.93C168.16,71.47,168.86,70.39,168.92,68.38Z"/><path class="cls-1" d="M141.9,58.47c-.59.65-1.05,1.6-1.68,1.74a3.33,3.33,0,0,1-2.58-.57c-2.3-2.07-4.43-4.34-6.62-6.53-.87-.87-1.78-1.71-2.59-2.63-1-1.14-1-2.42,0-3.26a2.21,2.21,0,0,1,3.18.18q4.62,4.56,9.18,9.19A10.06,10.06,0,0,1,141.9,58.47Z"/><path class="cls-1" d="M102.52,76.19c-.68-.56-1.5-.93-1.77-1.54a3,3,0,0,1,.13-2.2,7.34,7.34,0,0,1,1.59-1.77q3.73-3.75,7.49-7.49c1.33-1.32,2.64-1.49,3.65-.52s.9,2.3-.42,3.62c-2.87,2.89-5.73,5.77-8.64,8.61A12.64,12.64,0,0,1,102.52,76.19Z"/><path class="cls-1" d="M200.94,80.65c-2.08,0-4.17,0-6.25,0-1.64,0-2.62-.86-2.65-2.16a2.29,2.29,0,0,1,2.55-2.3q6.33-.09,12.67,0c1.67,0,2.56.94,2.55,2.28s-.93,2.15-2.61,2.18C205.11,80.67,203,80.65,200.94,80.65Z"/></svg>