<svg id="Layer_1" data-name="Layer 1" xmlns="http://www.w3.org/2000/svg" viewBox="0 0 24 24"><defs><style>.cls-1{fill:none;}.cls-2{fill:#f5f5f5;}</style></defs><title>2Artboard 1</title><path class="cls-1" d="M0,0H24V24H0Z"/><path class="cls-2" d="M15.64,16.5H10.18a2.71,2.71,0,0,1-2.77-2.73,6.32,6.32,0,0,1,.17-.95,1,1,0,0,0,0-.42Q6.15,7.84,4.7,3.29a.86.86,0,0,0-.92-.68c-.81,0-1.62,0-2.42,0a.8.8,0,0,1-.83-.78A.77.77,0,0,1,1.31,1c.88,0,1.75,0,2.62,0A2.42,2.42,0,0,1,6.24,2.79c.09.29.19.58.26.87a.25.25,0,0,0,.29.22h6c3.27,0,6.54,0,9.81,0a.89.89,0,0,1,.89,1.22c-.65,2-1.28,4.05-1.92,6.07a3,3,0,0,1-2.36,2.15,3.79,3.79,0,0,1-.67.06H9.32c-.17,0-.24,0-.27.21a1.1,1.1,0,0,0,1.07,1.3h11a1.53,1.53,0,0,1,.37,0,.81.81,0,0,1-.18,1.6H15.64ZM7.1,5.49a1.3,1.3,0,0,0,0,.15c.62,2,1.25,4,1.87,5.92a.21.21,0,0,0,.24.18h9.37a1.47,1.47,0,0,0,1.45-1.07q.78-2.49,1.54-5a1.42,1.42,0,0,0,0-.22Z"/><path class="cls-2" d="M7.47,19.82A2.5,2.5,0,1,1,10,22.39,2.52,2.52,0,0,1,7.47,19.82ZM10,18.93a.89.89,0,0,0-.9.89.92.92,0,0,0,.87,1,.94.94,0,0,0,.9-.92A.9.9,0,0,0,10,18.93Z"/><path class="cls-2" d="M20,22.39a2.55,2.55,0,0,1,0-5.09,2.56,2.56,0,0,1,2.5,2.6A2.52,2.52,0,0,1,20,22.39Zm-.87-2.57a.91.91,0,0,0,.87,1,1,1,0,0,0,.89-1,.88.88,0,1,0-1.76,0Z"/></svg>