<svg id="Layer_1" data-name="Layer 1" xmlns="http://www.w3.org/2000/svg" viewBox="0 0 283.46 283.46"><defs><style>.cls-1{fill:#f5f5f5;}</style></defs><title>5Artboard 1</title><path class="cls-1" d="M255.26,98.67v47.82a4.77,4.77,0,0,0-.23.7c-.38,2.44-.63,4.9-1.14,7.3a55.07,55.07,0,0,1-14,26,66.22,66.22,0,0,1-6.26,5.57,49.62,49.62,0,0,1-15.09,8.24c-2.21.75-4.46,1.4-6.7,2.07-.73.21-1,.55-.38,1.1a57.13,57.13,0,0,1,5.2,4.86,43,43,0,0,1,5,7.4A33.18,33.18,0,0,1,225.14,222a31.69,31.69,0,0,1-.38,9.49c-1.45,6.94-3,13.85-3.63,20.93q-.54,6.23-.91,12.47c-.16,2.64-.12,5.31-.26,8a8.6,8.6,0,0,1-11.06,7.67c-1.41-.43-2.27-.59-3.55.5s-3.23,1.64-4.88,2.41h-4.18a1.82,1.82,0,0,0-.47-.22,8.77,8.77,0,0,1-4.46-2.08c-.68-.57-1.14-.66-1.74,0a2.07,2.07,0,0,1-.74.52c-1.39.6-2.8,1.18-4.2,1.76H180.5a2.77,2.77,0,0,0-.46-.22,10.35,10.35,0,0,1-5-2.59,1.6,1.6,0,0,0-2.14-.41,8.29,8.29,0,0,1-10-2.65,4,4,0,0,0-3.74-1.83c-22,.07-43.92,0-65.88,0a3.14,3.14,0,0,0-.92,0,1.56,1.56,0,0,0-.85.56,8.49,8.49,0,0,1-9.9,4.2,3.86,3.86,0,0,0-4.14.74c-1.27,1-3,1.45-4.52,2.14H68.83c-1.78-.89-3.56-1.8-5.36-2.67a1,1,0,0,0-.73.08c-1.76.85-3.52,1.73-5.28,2.59H53.28a8.42,8.42,0,0,1-1.23-.4c-1.87-1-3.72-2-5.79-3.05a9.91,9.91,0,0,1-5.81.7A8.89,8.89,0,0,1,33.58,273c-.22-3.42-.18-6.86-.27-10.28-.05-1.89-.14-3.77-.24-5.64,0-.88-.12-1.76-.24-2.63-.37-2.67-.71-5.34-1.15-8-.55-3.32-1.21-6.63-1.77-9.95-.52-3.1-1-6.21-1.48-9.32a3.14,3.14,0,0,0-.22-.58V223.8c.15-1.11.34-2.21.45-3.33a31,31,0,0,1,3-10.19,34,34,0,0,1,9.31-11.87,32.84,32.84,0,0,1,12.79-6.67c.66-.17,1.28-.47,2.07-.76-.43-.47-.69-.75-1-1-2.4-2.41-4.77-4.85-7.23-7.21a32.08,32.08,0,0,1-7-9.8,26.33,26.33,0,0,1-2.37-9,53.42,53.42,0,0,1,.2-7.37,24.34,24.34,0,0,1,2.84-9.28,27.84,27.84,0,0,1,6.61-8.56A24.69,24.69,0,0,1,55.41,134c1.84-.69,3.73-1.23,5.57-1.89.47-.17,1.2-.31.71-1.19a8.82,8.82,0,0,1,2.83-11.5c.78-.48.59-1,.31-1.59-1-2.4-2.15-4.76-2.92-7.24a32.76,32.76,0,0,1-1.2-10.3c.14-9-.32-18,.45-27,.26-3.13.32-6.28.48-9.42s.3-6,.47-9.08c.06-1.11.13-2.22.23-3.32.3-3.08.63-6.15.92-9.22.25-2.74.42-5.48.72-8.22.33-3,.83-6,1.12-9.05a27.34,27.34,0,0,1,2.72-9.68,26.68,26.68,0,0,1,6.94-8.82,27.21,27.21,0,0,1,9.95-5.3C86.36.7,88.05.39,89.73,0H96c.91.16,1.83.27,2.73.48a27.25,27.25,0,0,1,16.76,11.17c3.58,5.21,7.05,10.5,10.57,15.75.64,1,.87.94,1.51,0,2.5-3.75,4.93-7.54,7.49-11.25,2.24-3.23,4.2-6.66,7.3-9.28a28.37,28.37,0,0,1,10.15-5.67c1.64-.49,3.34-.79,5-1.18h6.27c1,.17,1.91.28,2.85.51a28.49,28.49,0,0,1,15.77,9.6c4.2,5.12,5.92,11.09,6.46,17.53.19,2.39.45,4.78.71,7.17.28,2.69.64,5.37.89,8.06.22,2.28.3,4.58.49,6.87.29,3.58.63,7.15.91,10.73.2,2.52.34,5,.46,7.57.18,3.6.43,7.21.46,10.82.06,8.27,0,16.55,0,24.83a17.74,17.74,0,0,1-.26,3.09,35.47,35.47,0,0,1-3.79,11.12c-.37.66-.32,1,.35,1.45A8.6,8.6,0,0,1,192,130.68a15.65,15.65,0,0,1-3.25,3.75c-1.21,1.11-1.32,1.28-.52,2.67a2.28,2.28,0,0,0,2.53,1.28,14.42,14.42,0,0,1,1.86,0,3.31,3.31,0,0,0,3.49-3.53q0-16.95,0-33.89a15.51,15.51,0,0,1,.22-2.15A8.66,8.66,0,0,1,207.86,92a2.31,2.31,0,0,0,2.71-.51c3.41-3.31,10-3.41,13.9-.67l1.31,1a11.8,11.8,0,0,1,15.64.12,1.51,1.51,0,0,0,1.26.39,9.07,9.07,0,0,1,4.69-.78,7.53,7.53,0,0,1,5.79,3.13A33.83,33.83,0,0,1,255.26,98.67Zm-128.5,29.71h2.55c10.78-.07,21.56-.11,32.34-.26a20.51,20.51,0,0,0,8.41-2.19,26.46,26.46,0,0,0,10.49-8.61,25.61,25.61,0,0,0,5-14.38c.07-2.47,0-5,0-7.43-.07-6.17-.06-12.35-.27-18.52a31.91,31.91,0,0,0-2.23-9.82,42.77,42.77,0,0,0-39.7-28.38c-10.52-.08-21,0-31.57,0a49.2,49.2,0,0,0-9.68.9A42.73,42.73,0,0,0,71.63,64.2a43.36,43.36,0,0,0-3.72,17.36q0,6,0,12.07c0,3.7.08,7.4.25,11.1a21.83,21.83,0,0,0,2.44,8.57A26.84,26.84,0,0,0,77.35,122a25.86,25.86,0,0,0,16.79,6.37C105,128.5,115.88,128.38,126.76,128.38Zm121.3-5.29q0-11.32,0-22.64a1.57,1.57,0,0,0-1.44-1.75c-1-.11-1.53.49-1.6,1.51a6.4,6.4,0,0,1-.23,1.22c-.41,1.49-2.32,2.55-4.17,2.34a3.54,3.54,0,0,1-2.8-3.18,7.93,7.93,0,0,0-.47-2.08,4.65,4.65,0,0,0-3.83-2.62,4.28,4.28,0,0,0-3.89,2.76c-.28.93-.27,2-.59,2.87a3.5,3.5,0,0,1-4.15,2.24,3.77,3.77,0,0,1-2.83-3.7,4.42,4.42,0,0,0-4.23-4.15c-2.35-.06-3.94,1.83-4.2,4.27a5.18,5.18,0,0,1-1.36,2.85,3.55,3.55,0,0,1-5.79-2.67,1.68,1.68,0,0,0-1.65-1.69,1.75,1.75,0,0,0-1.58,1.77c0,.27,0,.54,0,.81q0,17.11,0,34.24a11,11,0,0,1-.38,2.46,10.35,10.35,0,0,1-9.7,7.62c-.72,0-1,.25-.88,1.14a47.33,47.33,0,0,1,.51,6.28c0,11.61,0,23.22,0,34.82,0,2.56,0,2.62,2.51,2.55a112,112,0,0,0,12.31-.55,44.21,44.21,0,0,0,15-5.19,48.7,48.7,0,0,0,14.05-11.38,48.17,48.17,0,0,0,7.88-13.11,44.38,44.38,0,0,0,3.46-16.62C248.08,136.7,248.06,129.9,248.06,123.09Zm-80.33,144H168c0,.62,0,1.24,0,1.86a17.08,17.08,0,0,0,.3,3.52,2,2,0,0,0,1.55,1.17,1.47,1.47,0,0,0,1.41-1.52c.11-2.37,1.45-3.53,4-3.49,1.84,0,3.14,1.48,3.2,3.58a4.2,4.2,0,0,0,5.44,3.89c2.32-.7,3-2.52,3.15-4.64a2.93,2.93,0,0,1,2.13-2.68,3.88,3.88,0,0,1,3.58.51c1.24.9,1.25,2.2,1.48,3.45a4.12,4.12,0,0,0,4.79,3.52,4.21,4.21,0,0,0,3.58-4.22,3.45,3.45,0,0,1,.16-1.12,3.68,3.68,0,0,1,4.37-2.29,3.52,3.52,0,0,1,2.64,3.43,1.51,1.51,0,0,0,1.27,1.54,1.72,1.72,0,0,0,1.4-.61,2.89,2.89,0,0,0,.58-1.65c.12-4.2.17-8.41.26-12.61a34.43,34.43,0,0,1,.25-3.66c.43-3.4.85-6.79,1.39-10.17.58-3.62,1.3-7.23,1.94-10.84.45-2.58,1-5.15,1.23-7.74a26.75,26.75,0,0,0-.42-5.7,25.32,25.32,0,0,0-6.12-13.22,27.09,27.09,0,0,0-13.88-8.79,25.92,25.92,0,0,0-10.76-.75,28.55,28.55,0,0,0-10.71,3.88A27.82,27.82,0,0,0,163,222.33a28.87,28.87,0,0,0,.42,8.66c.6,3.16,1.47,6.27,1.94,9.44.89,6,1.68,12,2.29,18.1A83.85,83.85,0,0,1,167.73,267.07ZM40.51,268.55h.23c0,1.16,0,2.32,0,3.48a1.64,1.64,0,0,0,1.47,1.65c.84.13,1.33-.42,1.54-1.21a10.94,10.94,0,0,0,.23-1.11,2.85,2.85,0,0,1,2-2.5,3.65,3.65,0,0,1,3.59.31c1.28,1,1.31,2.4,1.61,3.76a4.24,4.24,0,0,0,4.88,3.32,4.08,4.08,0,0,0,3.47-4.16,3.46,3.46,0,0,1,3.07-3.5c3.07-.23,3.77,1.63,4.14,3.4a10.3,10.3,0,0,0,.7,2.35,4.15,4.15,0,0,0,7.68-1.85,6.86,6.86,0,0,1,.59-2.27,3.46,3.46,0,0,1,4.06-1.59,3.11,3.11,0,0,1,2.52,3c.08,1.31.69,2.11,1.61,2.12s1.6-.89,1.65-2.21c.14-4.34.2-8.69.48-13,.25-3.92.65-7.83,1.16-11.72.47-3.53,1.1-7,1.8-10.53.87-4.33,2-8.61,1.68-13.1-.12-1.71-.13-1.63-1.77-1.85a8.77,8.77,0,0,1-5.15-2.42q-10.23-10.19-20.45-20.41a2.43,2.43,0,0,0-1.42-.82,21,21,0,0,0-3,.4,27.54,27.54,0,0,0-21.42,17.09,26.11,26.11,0,0,0-1.51,15.21,187.63,187.63,0,0,1,3.43,19.12c.38,3.59.88,7.18,1.11,10.79C40.66,263,40.51,265.78,40.51,268.55Zm49.4-59.33.22-.15a6.6,6.6,0,0,1,.24-1.34A3.46,3.46,0,0,1,96,206.29c3.32,2.87,6.54.8,7.3-1.73.53-1.79-.26-3.17-1.39-4.45a3.64,3.64,0,0,1,.17-4.57,3.69,3.69,0,0,1,5.39-.09,4,4,0,0,0,5.4.23,3.92,3.92,0,0,0,.82-5.65,12.78,12.78,0,0,1-1.11-1.57,3.66,3.66,0,0,1,1.22-4.59,3.84,3.84,0,0,1,4.5.36,1.49,1.49,0,0,0,2.06.24c1-.73,1-1.64-.2-2.79L84.62,146.15c-1-1-1.93-1.88-3-2.73a22.15,22.15,0,0,0-31.19,3.19,21.88,21.88,0,0,0-4.84,17.94,21.35,21.35,0,0,0,6.05,12q18.22,18.38,36.59,36.62a7.94,7.94,0,0,0,1.08.83c.83.58,1.47.15,2-.48a1.38,1.38,0,0,0-.1-1.86A16.42,16.42,0,0,1,89.91,209.22Zm91.72-69.14c-3.21,1.34-6.15,2.53-9,3.8a1.61,1.61,0,0,0-.64,1.14c-.22,1.66-.23,3.36-.54,5a46.13,46.13,0,0,1-5.61,15.25,44.83,44.83,0,0,1-21,18.6,41.27,41.27,0,0,1-10.43,3c-2.22.3-4.47.46-6.7.72a1.2,1.2,0,0,0-.77.5,8.51,8.51,0,0,1-4.35,3.36,1,1,0,0,0-.78,1,12.34,12.34,0,0,1-1.56,5.64,10.86,10.86,0,0,1-7.61,5.43c-1.81.36-1.84.21-2.18,1.94,0,.11,0,.24,0,.35a11.06,11.06,0,0,1-9.79,8.9c-.69.06-1.79.11-2,.49-.51,1.13-1.63,2.05-1.29,3.58a28.53,28.53,0,0,1,.49,4.53c.08,1.51,0,3,0,4.53,0,.26.1.69.26.75a1.29,1.29,0,0,0,.91-.13c.74-.38,1.44-.83,2.16-1.25a47.56,47.56,0,0,1,21.4-6.64,51.38,51.38,0,0,1,13,.58,50.59,50.59,0,0,1,13.87,4.48c2,1,3.92,2.12,6.05,3.27.06-.5.14-.92.17-1.35a74.74,74.74,0,0,1,.53-8.36A33.57,33.57,0,0,1,163.8,203a36,36,0,0,1,11-8.81,30.15,30.15,0,0,1,9.33-3.09c1.1-.17,1.53-.63,1.52-1.86q-.07-17.93,0-35.86a20.7,20.7,0,0,0-1.44-8.37C183.44,143.22,182.42,141.57,181.63,140.08ZM95.24,146a10.75,10.75,0,0,0,1,1.51q14.55,14.6,29.11,29.17a14.57,14.57,0,0,1,2.1,2.82,1.4,1.4,0,0,0,1.56.85c1.05-.15,2.1-.33,3.15-.45a34.15,34.15,0,0,0,11.23-3.44,38.77,38.77,0,0,0,11.42-8.57,36.27,36.27,0,0,0,7.72-12.79,79.88,79.88,0,0,0,2-8.49c.15-.65-.07-1.07-.76-1-2.83.12-5.65.36-8.49.41-4.41.07-8.82,0-13.23,0H140.3a12.6,12.6,0,0,1,.17,1.44c0,2.13.42,4.35-.05,6.36a13.1,13.1,0,0,1-8.46,9.83c-5.24,1.94-10.18,1.21-14.38-2.5a13.43,13.43,0,0,1-4.35-13.92c.27-1.19-.15-1.23-1-1.22-2.28,0-4.56,0-6.85,0Zm52.09-7.2v-.23c4.59,0,9.18.08,13.76,0a31.32,31.32,0,0,0,6.1-.76,37,37,0,0,0,18-9.92,1.42,1.42,0,0,0,.24-2.11c-.66-.75-1.36-1-2.19-.27l-2.88,2.44a32,32,0,0,1-20.86,7.59c-20.73.14-41.47.07-62.2,0-2.53,0-5.06-.21-7.57-.46A30.09,30.09,0,0,1,75.94,130a53.73,53.73,0,0,1-5.38-4.42,1.51,1.51,0,0,0-2.17,0,1.39,1.39,0,0,0-.21,2,31.08,31.08,0,0,0,3.21,3.18,5.51,5.51,0,0,0,2.29,1.08c4.11.93,8.06,2.33,11.31,5a8.51,8.51,0,0,0,5.73,1.95q12.77,0,25.54,0a10.16,10.16,0,0,0,4.52-.83,14.19,14.19,0,0,1,13.16.53,3.3,3.3,0,0,0,1.43.29C139.36,138.84,143.34,138.83,147.33,138.83Zm25.11-97.91c-.11-2-.15-3.52-.32-5.07-.34-3.18-.71-6.35-1.15-9.52a9.42,9.42,0,0,0-3.35-6.28,11,11,0,0,0-7.52-2.45,9.29,9.29,0,0,0-7.4,3.93c-2.13,2.85-4,5.9-5.95,8.87-.55.82-.28,1.31.7,1.41,1.4.14,2.82.22,4.2.49a49.47,49.47,0,0,1,17.95,7C170.42,39.88,171.31,40.29,172.44,40.92ZM81.09,39.7c.07.2.1.74.35.88s.73-.11,1.06-.29c2.61-1.44,5.15-3,7.84-4.33a44.67,44.67,0,0,1,15.72-4.15c1.15-.1,1.35-.47.72-1.42-1.79-2.72-3.57-5.45-5.39-8.15a9.75,9.75,0,0,0-11-4.34c-4.16,1.05-6.84,3.68-7.58,8-.33,1.95-.48,3.92-.72,5.89C81.74,34.36,81.42,36.93,81.09,39.7ZM159,268.61c1.56,0,1.84-.35,1.48-1.85-.11-.44-.12-.9-.22-1.35A36.82,36.82,0,0,0,156,254.59a33.42,33.42,0,0,0-8.34-9.37,34,34,0,0,0-15-6.64A34.14,34.14,0,0,0,99.31,252,34.49,34.49,0,0,0,93,267.43a1.36,1.36,0,0,0,.68,1.12c1.51.54,2.51-.12,2.74-1.69,0-.27,0-.55,0-.81a31.32,31.32,0,0,1,10.13-17.26,30.57,30.57,0,0,1,26.82-6.8,30.84,30.84,0,0,1,23.79,25.09C157.43,268.33,157.9,268.65,159,268.61ZM160.34,7.13c-.76.08-1.82.16-2.88.3a19,19,0,0,0-12.89,7.62c-2.2,2.89-4.06,6-6.08,9.06-1.34,2-2.72,4-4,6.06-.2.33-.3,1-.1,1.26.57.59,3,0,3.49-.72,2.53-3.81,5.08-7.63,7.58-11.46,1.82-2.79,3.92-5.35,6.9-6.89a17.85,17.85,0,0,1,14.72-.84,16.47,16.47,0,0,1,9.31,8.12c1.66,3.18,1.86,6.69,2.27,10.14.28,2.43.47,4.86.72,7.29.29,2.84.82,5.68.84,8.52a8.1,8.1,0,0,0,2.54,5.72,3,3,0,0,0,.87.43c.12-.33.38-.68.35-1-.19-2.2-.46-4.39-.67-6.59-.25-2.82-.41-5.64-.72-8.45-.4-3.67-.9-7.32-1.37-11a19,19,0,0,0-4.83-10.59A21.27,21.27,0,0,0,160.34,7.13ZM69.6,51.76c.47,0,.76.08.83,0a20.33,20.33,0,0,0,2.73-3.83c.47-1,.23-2.41.32-3.64.15-1.9.29-3.8.49-5.7.27-2.61.58-5.22.9-7.82.3-2.38.47-4.78,1-7.11a16,16,0,0,1,9-11.38,18.46,18.46,0,0,1,11.34-1.6,15.2,15.2,0,0,1,10.53,6.54c2.88,4.13,5.65,8.34,8.35,12.58.85,1.33,1.73,2.17,3.36,1.79a8.82,8.82,0,0,0,1.12-.41,5.33,5.33,0,0,0-.38-1c-2.48-3.81-5-7.59-7.45-11.41C109,14.68,106,11,101.36,8.92A20.63,20.63,0,0,0,89,7.51a20.93,20.93,0,0,0-9.89,4.83,19.3,19.3,0,0,0-6.25,10.21,64.6,64.6,0,0,0-1,7c-.32,2.56-.63,5.13-.9,7.7-.2,1.9-.31,3.81-.49,5.71C70.17,45.83,69.89,48.72,69.6,51.76ZM94.9,245.4c.52-.39.86-.61,1.14-.87,1.63-1.53,3.14-3.21,4.88-4.59a41.74,41.74,0,0,1,15-7.64,46.71,46.71,0,0,1,11.51-1.49,44,44,0,0,1,6.12.65,35.69,35.69,0,0,1,10.6,3.19A40.62,40.62,0,0,1,157,244a8.75,8.75,0,0,0,1.61,1.09,7.23,7.23,0,0,0,0-1.91c-.22-1.05-.34-2.36-1-3a48.61,48.61,0,0,0-5.56-4.53,38.55,38.55,0,0,0-13-6.22,41.74,41.74,0,0,0-8.46-1.57,73.47,73.47,0,0,0-10.69.42,35.24,35.24,0,0,0-11.37,3.36,53.35,53.35,0,0,0-10.45,6.63A7.49,7.49,0,0,0,94.9,245.4Zm31.8,6.26c.43,0,.85,0,1.28,0s.81.18,1.23.21a19.33,19.33,0,0,1,12.15,5.83,21.32,21.32,0,0,1,5.49,10c.09.35.49.88.75.89a9.58,9.58,0,0,0,2.29-.36c.08,0,.14-.48.09-.7a23.37,23.37,0,0,0-9.81-14.85,22.47,22.47,0,0,0-15.63-4,23.85,23.85,0,0,0-20.77,18.16c-.17.66-.49,1.49.55,1.8a1.88,1.88,0,0,0,2.61-1.08,30.68,30.68,0,0,1,2.13-5.45C113,255.3,119,252,126.7,251.66Zm.07,17h11.38c.84,0,1.38-.24,1-1.18a13.28,13.28,0,0,0-4.63-6,12.47,12.47,0,0,0-9.78-2.36,13.37,13.37,0,0,0-10.12,7.82c-.67,1.37-.36,1.71,1.24,1.72Zm0-111.21c3.41.24,6.88-3.09,6.86-6.77a7.23,7.23,0,0,0-6.52-6.76,6.92,6.92,0,0,0-7.15,6.85A6.71,6.71,0,0,0,126.77,157.4Z"/><path class="cls-1" d="M156.69,64.07a29.24,29.24,0,0,0-2.94-1.52c-3.07-1.15-6.15-1.79-9.42-.6a9,9,0,0,0-5.66,10.16c.76,3.47,1.42,7,2.13,10.45.38,1.81-.81,3-1.73,4.24a15,15,0,0,1-7.37,5.12c-.71.24-1,.6-.8,1.36,2,7,6.65,11.22,13.7,12.76a26.45,26.45,0,0,0,5.28.27c1,0,1.41.35,1.38,1.36,0,1.43,0,2.86,0,4.29s-.24,1.54-1.53,1.57a28.55,28.55,0,0,1-9.28-1.08c-.29-.09-.92.29-1.1.61a14,14,0,0,1-8.62,7c-4.74,1.28-9.13.54-12.86-2.71a26.34,26.34,0,0,1-3.46-4.17c-.41-.53-.6-.86-1.43-.62a30.52,30.52,0,0,1-9.43,1c-.82,0-1.08-.29-1.06-1.09,0-1.58.08-3.17,0-4.76-.06-1,.25-1.43,1.35-1.38a19.72,19.72,0,0,0,8.11-1.1,17.29,17.29,0,0,0,10-9.83c.13-.31.27-.62.39-.94.65-1.78.46-2-1.29-2.76a15.75,15.75,0,0,1-8.22-7.43,2.93,2.93,0,0,1-.05-1.79c.78-4,1.66-7.91,2.41-11.89.48-2.5-2-6.59-4.6-8a11.09,11.09,0,0,0-8.84-.66,34.41,34.41,0,0,0-4,1.65c-.26.12-.43.45-.64.69.25.18.47.47.75.54a15.18,15.18,0,0,1,5.79,2.46c3.31,2.52,5.55,5.69,5.73,9.94.19,4.74.17,9.49.26,14.23,0,.93-.34,1.25-1.3,1.24-4.87,0-9.75.06-14.62,0a12.18,12.18,0,0,1-9.29-4.69c-3-3.65-3.26-8-2.7-12.45a23,23,0,0,1,2.28-7.69,24.35,24.35,0,0,1,17-13.15,17.54,17.54,0,0,1,13,1.52,15.57,15.57,0,0,1,8,11.06c.7,3.58,0,7.06-.8,10.53-.25,1.18-.58,2.35-.8,3.53a1.93,1.93,0,0,0,.55,1.88,8.38,8.38,0,0,0,11.81-.22,1.58,1.58,0,0,0,.41-1.61,89.69,89.69,0,0,1-1.82-9.12,15.77,15.77,0,0,1,3.28-11.81c3.11-4,7.42-5.64,12.28-6,6.09-.52,11.36,1.56,16.07,5.32a23.68,23.68,0,0,1,8.33,13c1.07,4.23,1.38,8.54-.82,12.53-2.58,4.66-6.53,7.35-12,7.41-4.29,0-8.59,0-12.88,0-1.55,0-1.56,0-1.56-1.5,0-4.37-.09-8.74,0-13.11a13,13,0,0,1,7.12-11.57,28.76,28.76,0,0,1,4.67-1.68l.71-.24ZM98.06,85.64l0-.21c1.12,0,2.24,0,3.36,0,.77,0,1-.35,1-1a44,44,0,0,0-.29-6.9,6.63,6.63,0,0,0-8.74-5.31,6.76,6.76,0,0,0-4.68,6.93c.13,2.47,1.84,5.16,4.21,5.78A40.68,40.68,0,0,0,98.06,85.64Zm57.39-.21c.81,0,1.62,0,2.43,0a6.89,6.89,0,0,0,6.84-8.3,7.44,7.44,0,0,0-6.61-5.36c-2.26-.21-5.6,2.12-6.39,4.49-.95,2.81-.28,5.72-.42,8.58,0,.18.5.54.79.56C153.2,85.47,154.33,85.43,155.45,85.43Zm-35,23.55a6.81,6.81,0,0,0,7.58,4.3,6.52,6.52,0,0,0,4.91-3.8c.11-.27.09-.84-.08-1a21.31,21.31,0,0,1-5.4-5.68c-.4-.56-.78-.69-1.31.07a30.92,30.92,0,0,1-2.86,3.41C122.37,107.27,121.36,108.1,120.42,109Z"/></svg>