<svg id="Layer_1" data-name="Layer 1" xmlns="http://www.w3.org/2000/svg" viewBox="0 0 283.46 283.46"><defs><style>.cls-1{fill:#f5f5f5;}</style></defs><title>foodvectorwhiteArtboard 18</title><path class="cls-1" d="M125.36,179.78a10.91,10.91,0,0,1,9.07,4.9c2.91,4.06,5.72,8.19,8.48,12.34s2.36,8.59-1.08,12c-3,2.94-7.83,3.27-11.7.67-4.14-2.79-8.27-5.59-12.31-8.51a11.66,11.66,0,0,1-4.43-13C115.06,183.09,119.26,180,125.36,179.78Zm-.19,6.15c-2.86.51-4.53,1.75-5.39,4.13s.09,4.46,2,5.87c3.9,2.82,7.86,5.58,11.94,8.13.87.55,2.37.08,3.58.08,0-1.22.44-2.73-.11-3.61-2.55-4.09-5.27-8.08-8.17-11.92C128.16,187.42,126.49,186.81,125.17,185.93Z"/><path class="cls-1" d="M141.24,102.88a18.19,18.19,0,0,1,3,1.86q6.85,6.74,13.6,13.6c1.89,1.91,2,3.75.44,5.22-1.4,1.35-3.31,1.18-5-.55-4.61-4.57-9.27-9.1-13.71-13.83a5.21,5.21,0,0,1-.95-3.94C138.73,104.37,140.22,103.73,141.24,102.88Z"/></svg>