<svg id="Layer_1" data-name="Layer 1" xmlns="http://www.w3.org/2000/svg" viewBox="0 0 1865.38 1864.28"><defs><style>.cls-1{fill:#e97f89;}</style></defs><title>leftArtboard 2</title><path d="M871.14,937.64,404.74,606.06c-14.33-10.19-28.35-20.86-43.09-30.43-44.26-28.75-63.86-70.91-64.26-122-.84-104.49-.34-209-.11-313.47a177.15,177.15,0,0,1,3.09-35C320.71,5.91,413.79-30.71,495.6,28.52Q648,138.83,799.88,249.81,1185.07,530,1570.21,810.32c97.16,70.8,95.44,200.95-3.16,270.25q-533.44,374.9-1066.79,749.91c-42.19,29.73-84.88,45.93-134,20-48.82-25.76-68.08-70-68.64-122.34q-1.77-162-.09-324c.58-51.4,24.64-90.66,67.92-120,158-107.17,315.23-215.49,472.74-323.4C848.59,953.56,858.87,946.23,871.14,937.64Zm108.47-.31c-7.92,6.42-13.89,12-20.54,16.53-183.7,126-367.1,252.42-551.58,377.26-33.94,23-48,50.83-47.43,91,1.4,96.26.63,192.55.35,288.83-.09,32.58,1.28,64.76,33.91,83s55.58-5.33,79.13-21.86q525.39-368.81,1050.52-738c72.28-50.8,73.15-126.89,2-178.65Q1126.44,564.75,726.72,274.25c-90.13-65.5-180.19-131.11-270.91-195.79C412,47.23,369.68,66.35,361.59,119.83c-1.56,10.37-1,21.09-1,31.64-.07,86.89,3.49,174-1.22,260.59-3.41,62.51,19.19,101.29,70.59,136.61C614.33,675.4,795.61,806.68,979.61,937.33Z"/><path class="cls-1" d="M979.61,937.33c-184-130.65-365.28-261.93-549.69-388.66-51.4-35.32-74-74.1-70.59-136.61,4.71-86.63,1.15-173.7,1.22-260.59,0-10.55-.52-21.27,1-31.64,8.09-53.48,50.43-72.6,94.22-41.37,90.72,64.68,180.78,130.29,270.91,195.79Q1126.44,564.76,1526,855.5c71.13,51.76,70.26,127.85-2,178.65q-525.17,369.13-1050.52,738C449.9,1788.68,427,1812.3,394.32,1794s-34-50.46-33.91-83c.28-96.28,1-192.57-.35-288.83-.59-40.19,13.49-68.06,47.43-91C592,1206.28,775.37,1079.84,959.07,953.86,965.72,949.3,971.69,943.75,979.61,937.33Z"/></svg>