<svg id="Layer_1" data-name="Layer 1" xmlns="http://www.w3.org/2000/svg" viewBox="0 0 283.46 283.46"><defs><style>.cls-1{fill:#f5f5f5;}</style></defs><title>foodvectorwhiteArtboard 12</title><path class="cls-1" d="M283.46,141.74c-.08,78.56-63.45,141.9-141.71,141.63C63,283.1-.09,220,0,141.7a141.73,141.73,0,0,1,283.46,0ZM142.2,269.14a127.38,127.38,0,0,0,127-127.87C269,70.92,211.13,13.46,141.34,14.35c-71.65.91-127.66,57.9-127.16,129.39C14.67,212.6,72.83,269.57,142.2,269.14Z"/><path class="cls-1" d="M94.44,146.31c9.46,0,18.94-.46,28.36.12,11.43.72,20.37,6.81,26.26,16.28,8.79,14.11,17,28.61,24.95,43.22,11.65,21.35,1,47.27-21.94,53.59-10.9,3-22,1.4-32.82-.8-34.57-7.05-61.46-25.57-79.83-55.79-11.5-18.91-6.67-39.45,11.42-51.5,6.7-4.46,14.25-5.6,22-5.71,7.19-.11,14.37,0,21.56,0Zm.1,13.81c-7.54,0-15.11-.41-22.6.16-4.58.34-9.58,1.28-13.45,3.56-11.17,6.58-14.17,19.63-7.1,31.08,20.19,32.7,49.72,49.76,88.1,51.6,9.16.44,16.62-2.7,21.48-10.54,5.09-8.2,4.54-16.53-.37-24.83q-11.23-19-22.06-38.21c-4.75-8.48-11.88-12.6-21.39-12.79C109.61,160,102.07,160.13,94.54,160.12Z"/><path class="cls-1" d="M261.08,141.71c.1,21.94-5.95,42.25-16.85,61.07-13.18,22.76-49.19,22.56-62.67-.23-8.2-13.86-16.19-27.86-24.13-41.88-7.16-12.63-7.11-25.4,0-38,8-14,15.91-28,24.13-41.9,13.78-23.22,49.93-22.72,63.17.8C255.28,100.22,261.19,120.16,261.08,141.71Zm-14.47-.82a103.17,103.17,0,0,0-13.73-51.24A22.61,22.61,0,0,0,193.49,89c-8.05,13.55-15.83,27.26-23.66,40.94-4.35,7.6-4.55,15.37-.19,23,8,14,15.84,28.07,24.19,41.85,8.84,14.6,30.59,14.11,38.85-.79C241.65,177.86,246.91,160.59,246.61,140.89Z"/><path class="cls-1" d="M94.18,137.17c-9.27,0-18.59.65-27.8-.12-23.65-2-39.18-26.69-30.42-48.8,2.91-7.35,7.5-14.3,12.45-20.52,23.48-29.47,54.51-44.18,92-45.2,28.89-.8,47.43,28.84,33.91,54.34-7.94,15-16.39,29.75-25.42,44.1-7.35,11.67-18.92,16.69-32.63,16.75-7.35,0-14.71,0-22.07,0Zm.1-13.86c7.52,0,15,.08,22.58,0,8.6-.11,15.88-3.19,20.38-10.77,8.23-13.83,16.38-27.71,24.1-41.82,8.67-15.83-2-34-20-33.69-38.66.68-68.55,17.62-89.15,50.27-10.79,17.09-.19,35.68,20,36C79.57,123.42,86.92,123.31,94.28,123.31Z"/><path class="cls-1" d="M85.37,199.15A21.1,21.1,0,0,1,99,180.24c6.76-2.73,14-4.4,21.11-6.07,1.22-.29,3.9,1.51,4.35,2.87a142.67,142.67,0,0,1,5.1,18.69c2.64,14-6.8,26.21-20.68,27.3C96.41,224,85.32,213.55,85.37,199.15Zm26.25-7.61c-7.26.26-12.12,4.38-12,9.22a8.15,8.15,0,0,0,8.69,7.85c4.38-.29,8.2-4.11,7.44-8.39C115.13,196.9,115.92,192.12,111.62,191.54Z"/><path class="cls-1" d="M232.47,140.81c-.6,10.14-4.66,17.6-13.59,21.38-8.75,3.71-17.2,2.54-24.37-4-4.64-4.25-8.89-8.92-13.41-13.3-2.23-2.15-2.35-4-.07-6.19,4.65-4.49,8.94-9.4,13.84-13.6,7.24-6.21,15.62-7.74,24.43-3.63C227.68,125.34,231.55,132.48,232.47,140.81Zm-22.81,8.92a8,8,0,1,0,0-16c-3.56,0-10.05,5.19-10.06,8S206.09,149.67,209.66,149.73Z"/><path class="cls-1" d="M85.28,82.93a22.51,22.51,0,0,1,23.21-22.58c13.33.61,23.41,12.06,21.38,25.12-1.12,7.21-3.33,14.28-5.5,21.26-.39,1.23-3.27,2.74-4.61,2.44a181.18,181.18,0,0,1-20.15-5.64C90.72,100.38,85.35,92.23,85.28,82.93Zm22.44-8.14a8.13,8.13,0,0,0-8.13,7.87c-.07,4.77,4.9,9.19,10.86,9.12s4.65-5.38,5.21-8.62C116.45,78.58,112.37,74.81,107.72,74.79Z"/></svg>