<svg id="Layer_1" data-name="Layer 1" xmlns="http://www.w3.org/2000/svg" viewBox="0 0 283.46 283.46"><defs><style>.cls-1{fill:#f4f4f4;}</style></defs><title>Artboard 1</title><path class="cls-1" d="M240.89,174.69a33,33,0,1,0,33,33.06A32.83,32.83,0,0,0,240.89,174.69Zm0,54a21.06,21.06,0,0,1,0-42.11,21.06,21.06,0,1,1,0,42.11Z"/><path class="cls-1" d="M130.15,174.69a33,33,0,1,0,33,33.06A32.83,32.83,0,0,0,130.15,174.69Zm0,54a21.06,21.06,0,0,1,0-42.11,21.06,21.06,0,1,1,0,42.11Z"/><path class="cls-1" d="M40.47,207.11c4.31-2,10.07-7.51,10.07-14.56,0-9.61-8.42-16.94-19.32-16.94h-21a1.74,1.74,0,0,0-1.74,1.74V238a1.73,1.73,0,0,0,1.74,1.74H32.41c11.18,0,20-7.41,20-17.67C52.37,213.61,45.32,208.66,40.47,207.11Zm-20.14-20.6h9.79A7.47,7.47,0,0,1,38,194.29c0,4.58-3.2,8.24-7.88,8.24H20.33ZM31.41,228.9H20.33V212.6h10c4.76,0,9.34,3.39,9.34,8A8.17,8.17,0,0,1,31.41,228.9Z"/><path class="cls-1" d="M214.19,44.22a1.54,1.54,0,0,1,1.64-1.37h1.47a1.65,1.65,0,0,1,1.55.91L239,87h.27l20.15-43.22a1.56,1.56,0,0,1,1.55-.91h1.47a1.56,1.56,0,0,1,1.65,1.37l10.8,61.53a1.59,1.59,0,0,1-1.65,2.1h-8.33a2,2,0,0,1-1.74-1.37l-5.4-34.7h-.28l-16,36a1.55,1.55,0,0,1-1.56,1h-1.65a1.64,1.64,0,0,1-1.55-1l-16.21-36h-.27l-5.31,34.7a1.78,1.78,0,0,1-1.65,1.37H205a1.67,1.67,0,0,1-1.74-2.1Z"/><path class="cls-1" d="M158.17,105.47,130,43.85a1.55,1.55,0,0,0-1.56-1h-.91a1.64,1.64,0,0,0-1.56,1L97.47,105.47A1.61,1.61,0,0,0,99,107.85h8a2.74,2.74,0,0,0,2.65-1.83l4.49-9.89h27.38L146,106a2.62,2.62,0,0,0,2.66,1.83h8A1.62,1.62,0,0,0,158.17,105.47ZM118.62,86l9-20.14h.27L137,86Z"/><path class="cls-1" d="M40.47,75.26c4.3-2,10.07-7.51,10.07-14.56,0-9.61-8.42-16.94-19.32-16.94h-21A1.74,1.74,0,0,0,8.52,45.5v60.61a1.73,1.73,0,0,0,1.74,1.74H32.41c11.17,0,20-7.41,20-17.67C52.37,81.76,45.32,76.82,40.47,75.26ZM20.33,54.66h9.79A7.48,7.48,0,0,1,38,62.44c0,4.58-3.21,8.24-7.88,8.24H20.33ZM31.41,97.05H20.33V80.75h10c4.76,0,9.34,3.39,9.34,8A8.17,8.17,0,0,1,31.41,97.05Z"/></svg>