<svg id="Layer_1" data-name="Layer 1" xmlns="http://www.w3.org/2000/svg" viewBox="0 0 283.46 283.46"><defs><style>.cls-1{fill:#f5f5f5;}</style></defs><title>foodvectorwhiteArtboard 17</title><path class="cls-1" d="M155.49,167.41a66.15,66.15,0,0,0,44.9-19.26c6.25-6.15,13.75-6.17,20,0q23.32,23,46.59,46a84.26,84.26,0,0,1,8.52,9C284.32,215,281.36,231,269,239.44c-3.2,2.17-6.61,4-9.93,6-1.9,1.14-2,1.64-.48,3.19a8,8,0,0,1,2.16,8.95,8.13,8.13,0,0,1-7.7,5.66c-6.21.39-11.76,2.27-16.42,6.66a7.93,7.93,0,0,1-9.44,1.47,8.2,8.2,0,0,1-4.89-8c0-1.89-.5-2.32-2.31-1.9-2.84.67-5.67,1.4-8.51,2.07-1.57.37-2,1.13-1.17,2.62,1.92,3.35,1.81,6.63-.63,9.67a8.27,8.27,0,0,1-9.11,2.94,25.26,25.26,0,0,0-17.45,1.74,8.48,8.48,0,0,1-11.62-10.57c.59-1.6.1-2.37-1.52-2.47-3.05-.18-6.1-.29-9.15-.45-1.53-.08-2.16.46-1.72,2.06a7.92,7.92,0,0,1-2.91,8.9,8.15,8.15,0,0,1-9.89.55c-5.53-3.46-11.44-4.13-17.8-3.46a8.2,8.2,0,0,1-9.26-9,10.6,10.6,0,0,1,1.86-4.6c1-1.46.53-2.09-.81-2.58-2.92-1.08-5.86-2.14-8.8-3.18-1.29-.45-2.07-.21-2.15,1.4a8.12,8.12,0,0,1-5.53,7.79c-3.78,1.4-7.1.37-9.72-2.69-4.08-4.76-9.36-7.17-15.44-8.3a8.37,8.37,0,0,1-5.39-13.48,10.86,10.86,0,0,1,2.1-1.89c1.13-.85,1.33-1.61.08-2.55-2.56-1.91-5.07-3.89-7.59-5.85-1.18-.92-1.9-.63-2.42.76a8.53,8.53,0,0,1-16,.43c-2.46-5.88-6.73-9.9-12.32-12.75a8.11,8.11,0,0,1-4.68-8c.2-3.78,2.33-6.41,6-7.64,1.89-.63,2.05-1.14,1-2.76L34.76,193c-1.17-1.8-1.63-1.89-3-.34a8.07,8.07,0,0,1-8.84,2.6,8,8,0,0,1-6.06-7.63,28,28,0,0,0-6.56-16.75,10.83,10.83,0,0,1-2.07-4.12c-1.37-5.35,3.37-10.66,8.86-10.1,2.29.23,2.58-.07,2.19-2.23-.5-2.74-1-5.47-1.52-8.21-.43-2.31-.62-2.41-2.75-1.48a8.44,8.44,0,0,1-11.38-4.4,8.22,8.22,0,0,1-.09-6.54A26,26,0,0,0,4,116.22c-1.2-3.83-.29-7.17,2.91-9.64a8,8,0,0,1,9.5-.5c1.28.74,2,.46,2.36-1,.69-3,1.36-6,2.1-8.91.41-1.61-.08-2.26-1.79-2.2a8,8,0,0,1-8.19-4.9,8.09,8.09,0,0,1,1.5-9.28c3.55-4,6.39-8.26,7.45-13.56.25-1.27.29-2.58.62-3.82.92-3.49,3.07-5.94,6.68-6.64a8,8,0,0,1,8.43,3.27c1.19,1.58,1.72,1.58,2.92,0,1.79-2.31,3.5-4.68,5.37-6.92,1.18-1.41.65-1.95-.69-2.75a12.81,12.81,0,0,1-4-3.27c-3.1-4.45-1.32-9.79,3.71-12.45a58.52,58.52,0,0,0,9.26-5.75c2.12-1.7,3.62-4.18,5.31-6.39a8.58,8.58,0,0,1,7.76-3.62,7.92,7.92,0,0,1,7,5.09,12.91,12.91,0,0,1,.66,2.55c.23,1.19.92,1.43,1.93,1,2.92-1.29,5.82-2.6,8.73-3.9,1.47-.66,1.18-1.5.37-2.56-3.83-5-2-11.33,3.86-13.36a10.06,10.06,0,0,1,4.4-.34,32.07,32.07,0,0,0,18.26-2.7A8.4,8.4,0,0,1,121.14,7a8,8,0,0,1,.6,7.78c-.7,1.79-.39,2.26,1.52,2.53,2.82.39,5.64.8,8.46,1.2,1.4.19,2.18-.08,1.94-1.85a7.94,7.94,0,0,1,4-8.3,8.08,8.08,0,0,1,9.38.42c1,.7,1.88,1.56,2.85,2.3a31.4,31.4,0,0,0,13.67,6,12.39,12.39,0,0,1,5.2,2c4.74,3.65,4.46,9.9-.4,13.52-1.73,1.3-1.74,1.63-.15,3.06,2.07,1.86,4.17,3.69,6.18,5.61,1.23,1.17,2,1,2.81-.45,1.79-3.3,4.64-5,8.37-4.59A8.33,8.33,0,0,1,193.06,43a37.55,37.55,0,0,0,9.12,16.8,8.1,8.1,0,0,1,1.39,9.47C202,72.57,199.23,74,195.66,74c-2.93,0-2.9.08-2.52,3.13,2.88,23.14-4.06,42.59-22.89,56.72-16.41,12.3-37.58,11.38-53.13-1.61-14.09-11.77-16.48-30.68-4.24-45,7.66-9,21.82-10.36,30.74-2.54,6.84,6,8.22,14.65,2.26,22.18a11.5,11.5,0,0,1-12.71,3.42c-2-.82-3-2.38-2.43-3.88.7-1.81,2.13-2.24,4-1.91a4.29,4.29,0,0,0,5.05-2.48,6.19,6.19,0,0,0-.81-7.19,9,9,0,0,0-13.44.87c-4.92,6.56-2.87,15.26,4.53,19.22,10.29,5.51,21.59,1,26.25-10.37,5.13-12.54.83-25.46-11-32-13.15-7.31-26.26-8-39.11,1A40.65,40.65,0,0,0,92,91.4c-7.3,17.13-6.55,33.77,3.91,49.47,6,9,14.9,14.58,24.35,19.23C130.77,165.28,142,167.63,155.49,167.41Zm22.44,94.87c4.35-.38,12.37-.75,20.29-1.83a165.3,165.3,0,0,0,67.2-25,21.94,21.94,0,0,0,6.69-6.67c5.44-8.81,3.9-18.34-3.92-26.09q-25.71-25.5-51.52-50.89c-4-4-8.49-3.87-12.54.09-13.07,12.8-28.88,19.53-47,20.7-16.4,1-31.63-3-45.75-11.3-7.5-4.42-14.4-9.61-19.39-16.85C81.49,129.31,79.42,112.8,84.8,95.34c3-9.8,8.15-18.49,16.13-25,13.21-10.78,31.14-11.35,45.69-3.21,13.23,7.41,18.81,18.53,16.57,32.43-1.23,7.61-4.67,14.21-10.95,18.67-7.84,5.58-16.36,5.56-24.83,1.17-6.86-3.55-10.85-11.06-9.74-18.21,1-6.17,5.4-14,14.07-14.33.49,0,1-.67,1.44-1-.54-.3-1.06-.82-1.63-.87a17,17,0,0,0-11.41,2.84c-10.28,7-13,22.91-5.58,33.68,11.59,16.85,33.9,19.57,49.33,10.32,18.24-11,27.24-32.68,24.08-53.69C185.59,62.32,177.44,49.87,165.24,40c-20.57-16.57-44-21.4-69.55-15.59C76.42,28.83,60.85,39.58,48.57,54.75,21.35,88.36,15.1,126.09,28.3,167c7.8,24.14,23.29,43.14,42.76,58.89C101.1,250.17,135.7,261.9,177.93,262.28Zm-23.74,8.92c-.13-3.5-1.65-4.93-5.17-5.56-5.79-1.05-11.61-2.09-17.3-3.59-2.82-.74-4.57-.31-6.16,2.05-.91,1.35-1.52,2.6-.69,4.11s2.33,1.79,3.89,1.55a29,29,0,0,1,19.39,3.71,7,7,0,0,0,3,.91A3,3,0,0,0,154.19,271.2Zm-50.13-16.37c.64-1.85-.69-2.65-2.46-3.56-5.65-2.92-11.23-6-16.76-9.13-3-1.73-3-1.82-5.84.13-1.37.93-2.52,2-2.14,3.79s1.67,2.44,3.38,2.73a27.79,27.79,0,0,1,12.81,5.31,63.85,63.85,0,0,1,5.07,4.68c1.18,1.13,2.64,1.87,4,.89.94-.68,1.35-2.11,1.91-3.25C104.19,256.1,104.06,255.62,104.06,254.83Zm123.57,8.44-.44.29c.7,1,1.2,2.23,2.13,2.89,1.26.9,2.71.56,3.9-.55A29.54,29.54,0,0,1,252.38,258c2.45-.13,3.78-1.56,3.56-3.54-.18-1.6-3.79-4.9-5.12-4.67a2.81,2.81,0,0,0-.56.25c-7,2.86-14.08,5.7-21.09,8.62a2.57,2.57,0,0,0-1.27,1.57A15.89,15.89,0,0,0,227.63,263.27ZM90.1,11.43c-.59.43-2.12,1-2.48,2s.32,2.47.69,3.69c.14.47.81.76,1,1.23.86,1.85,2.15,1.59,3.87,1.29,6.06-1.06,12.14-2.05,18.25-2.63,2.51-.23,4.16-.62,5-3.25.5-1.63,1.17-3.11-.2-4.51s-2.93-1-4.54-.37a60.21,60.21,0,0,1-6.5,2.26C100.47,12.34,95.67,12.26,90.1,11.43ZM57.36,232a31.16,31.16,0,0,0,3-2.79c.45-.54.46-1.42.83-2,.89-1.5.47-2.5-.74-3.69-4.58-4.52-9.14-9.08-13.46-13.84-1.85-2-3.45-3.09-6.21-1.86-1.46.64-2.77,1.07-3,2.86a3.37,3.37,0,0,0,2.2,3.54,29.11,29.11,0,0,1,14.26,15C54.73,230.12,56.07,230.79,57.36,232ZM42.81,42.1a16.17,16.17,0,0,0,2.07,2.25c.6.47,1.6.41,2.25.84,1.61,1.05,2.56.35,3.83-.77,4.68-4.12,9.39-8.21,14.32-12,2-1.57,3.6-2.73,2.5-5.63-.54-1.42-.65-3-2.39-3.41s-3.12.37-4.15,1.85a49,49,0,0,1-3.42,4.54,30.27,30.27,0,0,1-11.88,8.32A4.32,4.32,0,0,0,42.81,42.1ZM16.79,162l-.26-.39c-1,.63-2.31,1.06-2.73,1.94a5.1,5.1,0,0,0,.14,3.39c.27.85,1.13,1.5,1.7,2.26A30.82,30.82,0,0,1,22,186.49c.08,1.68.52,3.11,2.34,3.63s3-.28,3.95-1.74c.33-.51.91-.92,1.08-1.46a4.64,4.64,0,0,0,.37-2.69c-2.62-6.82-5.35-13.6-8.12-20.36a2.65,2.65,0,0,0-1.45-1.4A21.33,21.33,0,0,0,16.79,162ZM206.21,269.84a23.16,23.16,0,0,0-2.68-4.14c-.5-.53-2-.22-3.05-.12-6.14.57-12.26,1.29-18.41,1.75-4,.3-4,.14-5.47,3.92a3,3,0,0,0,2.35,4.28,6.54,6.54,0,0,0,3.32-.49,27.88,27.88,0,0,1,13.28-2.36c2.29.16,4.55.66,6.83,1S206.2,272.68,206.21,269.84Zm-64-257.65a11.33,11.33,0,0,0-1.92.79c-2.28,1.49-.92,3.68-1,5.59-.07,1.35.81,1.82,1.88,2.3,5.8,2.59,11.68,5,17.3,8,2.32,1.21,4,1.77,6.11,0,1.17-1,2.49-1.79,2.24-3.54s-1.62-2.76-3.38-3a34.68,34.68,0,0,1-18.53-8.58A13.94,13.94,0,0,0,142.18,12.19ZM18.63,89.11c4.25-.42,4.25-.51,5.87-4,2.49-5.41,5-10.84,7.77-16.11,1.11-2.09,1.6-3.59-.12-5.61C31,62,30.05,60.6,28.07,61s-2.51,2.09-2.69,3.87a26.72,26.72,0,0,1-4.1,11.82A76.5,76.5,0,0,1,16.46,83c-1,1.21-1.52,2.63-.68,3.93C16.39,87.87,17.65,88.39,18.63,89.11Zm-1.89,25.71c.91-1.52.3-2.47-1.14-3a6.37,6.37,0,0,1-1.2-.76c-1.39-1-2.88-1.37-4.34-.28s-1.39,2.6-1,4.09c1.36,4.69,2.05,9.43,1.09,14.27-.44,2.25-1.37,4.42-1.69,6.68-.16,1.17.16,2.93,1,3.57s2.47.39,3.73.27c.67-.07,1.26-.8,2-1,1.34-.45,1.65-1.3,1.63-2.64C16.71,128.92,16.74,121.87,16.74,114.82ZM198.8,64.59a18.83,18.83,0,0,0-1.73-2.65A38.59,38.59,0,0,1,188.44,46a12.85,12.85,0,0,0-1-2.85,3,3,0,0,0-4.16-1.34c-2.11,1-3.13,5.25-2,7.27a170,170,0,0,1,8.32,15.28c1.2,2.7,2.38,4.13,5.36,4.25C197.22,68.71,198.84,67.53,198.8,64.59Z"/><path class="cls-1" d="M89.29,165.36a2.56,2.56,0,0,1-2.7-2.49A2.4,2.4,0,0,1,89,160.14a2.56,2.56,0,0,1,2.81,2.55A2.61,2.61,0,0,1,89.29,165.36Z"/><path class="cls-1" d="M114.7,178c-.2,1.5-1,2.51-2.63,2.47a2.47,2.47,0,0,1-2.63-2.53,2.62,2.62,0,0,1,2.75-2.63A2.52,2.52,0,0,1,114.7,178Z"/><path class="cls-1" d="M98.16,57.61c-1.56-.18-2.63-.89-2.67-2.53a2.39,2.39,0,0,1,2.39-2.69,2.56,2.56,0,0,1,2.82,2.54C100.64,56.53,99.59,57.28,98.16,57.61Z"/><path class="cls-1" d="M162.56,63.32a2.61,2.61,0,1,1-.24-5.22c1.38,0,3,1.34,2.79,2.65A2.66,2.66,0,0,1,162.56,63.32Z"/><path class="cls-1" d="M71.86,127.31a2.52,2.52,0,0,1-2.65,2.56,2.45,2.45,0,0,1-2.61-2.54,2.63,2.63,0,1,1,5.26,0Z"/><path class="cls-1" d="M76,140.66a2.39,2.39,0,0,1-2.53,2.3,2.54,2.54,0,0,1-2.71-2.63c0-1.28,1.44-2.72,2.66-2.54A2.6,2.6,0,0,1,76,140.66Z"/><path class="cls-1" d="M165.57,188.63a2.46,2.46,0,0,1-2.37-2.57,2.38,2.38,0,0,1,2.49-2.63,2.53,2.53,0,0,1,2.72,2.45C168.61,187.23,167.21,188.6,165.57,188.63Z"/><path class="cls-1" d="M176.63,183a2.51,2.51,0,0,1,2.55-2.55,2.6,2.6,0,1,1,0,5.19A2.53,2.53,0,0,1,176.63,183Z"/><path class="cls-1" d="M89.91,63.59a2.6,2.6,0,0,1-2.6,2.54,2.73,2.73,0,0,1-2.68-2.74,2.56,2.56,0,0,1,2.72-2.45A2.61,2.61,0,0,1,89.91,63.59Z"/><path class="cls-1" d="M171.33,73.65a2.43,2.43,0,0,1-2.45-2.52,2.49,2.49,0,0,1,2.44-2.72,2.72,2.72,0,0,1,2.78,2.65A2.62,2.62,0,0,1,171.33,73.65Z"/><path class="cls-1" d="M126.88,47.53A2.45,2.45,0,0,1,124.31,50a2.41,2.41,0,0,1-2.67-2.43,2.76,2.76,0,0,1,2.64-2.78A2.93,2.93,0,0,1,126.88,47.53Z"/><path class="cls-1" d="M77.49,152.21a2.63,2.63,0,0,1,5.25.31A2.66,2.66,0,0,1,80,155,2.6,2.6,0,0,1,77.49,152.21Z"/><path class="cls-1" d="M69.06,97.3a2.48,2.48,0,0,1,2.44,2.58A2.44,2.44,0,0,1,69,102.52a2.78,2.78,0,0,1-2.77-2.67A2.92,2.92,0,0,1,69.06,97.3Z"/><path class="cls-1" d="M124.5,185.4a2.36,2.36,0,0,1-2.18-2.55,2.6,2.6,0,1,1,5.2.11C127.44,184.45,126.54,185.45,124.5,185.4Z"/><path class="cls-1" d="M110.61,52.07a2.41,2.41,0,0,1-2.51-2.58A2.34,2.34,0,0,1,110.64,47a2.57,2.57,0,1,1,0,5.12Z"/><path class="cls-1" d="M100,173.64a2.48,2.48,0,0,1-2.49-2.6c0-1.61,1-2.42,2.58-2.51a2.62,2.62,0,0,1,2.64,2.69C102.61,172.83,101.58,173.54,100,173.64Z"/><path class="cls-1" d="M138.52,183.35a2.46,2.46,0,0,1,2.37,2.58,2.41,2.41,0,0,1-2.51,2.61,2.73,2.73,0,0,1-2.75-2.67A2.87,2.87,0,0,1,138.52,183.35Z"/><path class="cls-1" d="M79,77a2.63,2.63,0,0,1-2.68-2.49A2.52,2.52,0,0,1,79,71.88a2.47,2.47,0,0,1,2.58,2.55C81.61,76,80.53,76.8,79,77Z"/><path class="cls-1" d="M151.08,50.7a2.41,2.41,0,0,1,2.39,2.53,2.59,2.59,0,0,1-2.72,2.65,2.71,2.71,0,0,1-2.49-2.71A2.52,2.52,0,0,1,151.08,50.7Z"/><path class="cls-1" d="M137.94,46.1a2.44,2.44,0,0,1,2.55,2.46,2.4,2.4,0,0,1-2.39,2.7,2.62,2.62,0,0,1-2.84-2.53A2.73,2.73,0,0,1,137.94,46.1Z"/><path class="cls-1" d="M70.37,113.55a2.61,2.61,0,0,1-2.64,2.68,2.66,2.66,0,0,1-2.62-2.76,2.64,2.64,0,0,1,5.26.08Z"/><path class="cls-1" d="M70.16,86.48a2.34,2.34,0,0,1,2.5-2.31,2.46,2.46,0,0,1,2.74,2.39,2.75,2.75,0,0,1-2.65,2.78A2.67,2.67,0,0,1,70.16,86.48Z"/><path class="cls-1" d="M154.68,187a2.64,2.64,0,0,1-5.27-.07,2.46,2.46,0,0,1,2.66-2.46A2.52,2.52,0,0,1,154.68,187Z"/></svg>